<svg width="81" height="80" viewBox="0 0 81 80" fill="none" xmlns="http://www.w3.org/2000/svg">
<path d="M8.30289 38.5271C7.18172 38.5271 6.27289 37.6449 6.27289 36.5567L6.27289 8.97045C6.27289 7.88217 7.18172 7.00001 8.30289 7.00001H32.6629C33.7841 7.00001 34.6929 7.88217 34.6929 8.97045V36.5567C34.6929 37.6449 33.7841 38.5271 32.6629 38.5271H8.30289Z" stroke="#001A47" stroke-width="2"/>
<path d="M43.8279 73.0099C42.7067 73.0099 41.7979 72.1277 41.7979 71.0394L41.7979 8.97048C41.7979 7.88221 42.7067 7.00004 43.8279 7.00004H68.1879C69.3091 7.00004 70.2179 7.88221 70.2179 8.97048V71.0394C70.2179 72.1277 69.3091 73.0099 68.1879 73.0099H43.8279Z" stroke="#001A47" stroke-width="2"/>
<path d="M8.30289 72.5271C7.18172 72.5271 6.27289 71.6449 6.27289 70.5567L6.27289 42.9704C6.27289 41.8822 7.18172 41 8.30289 41H32.6629C33.7841 41 34.6929 41.8822 34.6929 42.9704V70.5567C34.6929 71.6449 33.7841 72.5271 32.6629 72.5271H8.30289Z" stroke="#001A47" stroke-width="2"/>
</svg>
