<svg width="35" height="36" viewBox="0 0 35 36" fill="none" xmlns="http://www.w3.org/2000/svg">
<g clip-path="url(#clip0_568_321)">
<path d="M24.0727 24.8381L24.3783 25.9394L25.432 25.6252L25.1705 24.5495L24.0727 24.8381ZM22.1681 25.1106L23.1435 25.6782L24.2867 23.6823L23.3113 23.1147L22.1681 25.1106ZM8.04115 14.2277L7.06576 13.6601L5.92259 15.656L6.89797 16.2236L8.04115 14.2277ZM21.2875 18.182L22.975 25.1267L25.1705 24.5495L23.4832 17.6049L21.2875 18.182ZM23.7671 23.7368L16.9355 25.7738L17.5467 27.9764L24.3783 25.9394L23.7671 23.7368ZM23.3113 23.1147L8.04115 14.2277L6.89797 16.2236L22.1681 25.1106L23.3113 23.1147Z" fill="#001A47"/>
</g>
<defs>
<clipPath id="clip0_568_321">
<rect width="22.5709" height="27.6014" fill="white" transform="matrix(0.864287 0.502999 -0.497007 0.867746 14.5072 0.667725)"/>
</clipPath>
</defs>
</svg>
