<svg width="81" height="80" viewBox="0 0 81 80" fill="none" xmlns="http://www.w3.org/2000/svg">
<g clip-path="url(#clip0_568_573)">
<path d="M15.9438 0.234337C14.2095 0.703087 12.9907 1.60934 11.9751 3.17184C10.8188 4.95309 10.897 2.57809 10.897 37.7968V69.375H5.97508H1.03758L0.662582 69.7656C0.287582 70.125 0.271957 70.2187 0.271957 72.1406C0.271957 73.3281 0.365707 74.4687 0.490707 74.9375C1.13133 77.3593 3.16258 79.3125 5.55321 79.8281C6.14696 79.9531 14.4126 80 35.0063 80C65.8813 80 64.4438 80.0312 66.0688 79.2187C67.6157 78.4218 69.0063 76.6093 69.397 74.8437C69.6157 73.8906 69.647 70.3125 69.647 42.2031V10.625H74.5532C80.6313 10.625 80.1782 10.8281 80.2407 8.18746C80.3345 5.18746 79.8813 3.68746 78.3813 2.10934C77.522 1.20309 76.4126 0.531212 75.2095 0.218712C74.0063 -0.109413 17.147 -0.0781631 15.9438 0.234337ZM67.8501 3.31246C66.897 4.96871 66.9751 2.23434 66.9438 39.875L66.9126 74.2968L66.5532 75.0312C65.9126 76.3281 64.3501 77.3437 63.0063 77.3437C62.1626 77.3437 60.9907 76.9062 60.3188 76.3437C59.3032 75.4531 58.9907 74.5156 58.897 72.0781C58.8345 70.2812 58.7876 69.9687 58.522 69.7343C58.2251 69.4687 57.0532 69.4531 35.9126 69.375L13.6313 69.2968V37.5V5.70309L13.9907 4.96871C14.4282 4.07809 15.3813 3.21871 16.272 2.90621C16.8188 2.71871 20.5063 2.67184 42.5688 2.67184L68.2251 2.65621L67.8501 3.31246ZM75.3657 3.09371C76.7563 3.81246 77.4751 5.01559 77.5845 6.74996L77.6626 7.96871H73.647H69.647V6.90621C69.647 3.81246 72.7563 1.74996 75.3657 3.09371ZM56.272 73.375C56.3813 74.8125 56.7563 76.1093 57.3032 76.875L57.647 77.3437L31.7251 77.3125C6.80321 77.2656 5.80321 77.25 5.27196 76.9687C3.78758 76.1875 3.06883 75.0156 2.95946 73.2343L2.88133 72.0312H29.522H56.1626L56.272 73.375Z" fill="#001A47"/>
<path d="M31.0063 13.3906C30.9438 13.4375 30.897 14.0469 30.897 14.7188V15.9375H39.5688H48.2407V14.6094V13.2812H39.6782C34.9595 13.2812 31.0532 13.3281 31.0063 13.3906Z" fill="#001A47"/>
<path d="M18.897 22.6875L18.9438 23.9844H40.272H61.6001L61.647 22.6875L61.6939 21.4062H40.272H18.8501L18.897 22.6875Z" fill="#001A47"/>
<path d="M18.897 30.6562L18.9438 31.9531L33.6001 32L48.2407 32.0312V30.7031V29.375H33.5532H18.8501L18.897 30.6562Z" fill="#001A47"/>
<path d="M53.5532 30.7031V32.0312L57.5845 32L61.6001 31.9531L61.647 30.6562L61.6938 29.375H57.6157H53.5532V30.7031Z" fill="#001A47"/>
<path d="M18.8657 38.6719V40H40.272H61.6782V38.6719V37.3438H40.272H18.8657V38.6719Z" fill="#001A47"/>
<path d="M51.2095 44.4218C48.147 45.4687 46.1626 47.8281 45.7095 50.9374C45.5532 52.0156 45.5532 52.3906 45.772 53.4218C46.0845 54.9218 46.6938 56.2187 47.5688 57.1874L48.2251 57.9218L48.272 61.9218C48.3188 65.8281 48.3345 65.9374 48.6626 66.2812C49.2876 66.9062 49.897 66.7499 51.8188 65.4843C52.8501 64.7968 53.647 64.3749 53.7876 64.4218C53.9126 64.4843 54.6313 64.9374 55.3813 65.4374C57.3501 66.7499 57.3813 66.7656 58.022 66.5624C58.3188 66.4687 58.6313 66.2499 58.7095 66.0937C58.8032 65.9218 58.8657 64.1874 58.8657 61.9062V58.0156L59.272 57.6406C60.647 56.3437 61.5376 54.1562 61.5376 52.0312C61.5376 48.3906 59.2563 45.3437 55.7563 44.3124C54.4907 43.9374 52.4595 43.9843 51.2095 44.4218ZM55.5376 47.0624C56.7876 47.5312 58.0688 48.8124 58.5376 50.0781C58.8188 50.8281 58.8813 51.2656 58.8345 52.2656C58.7563 54.3437 57.772 55.8437 55.9438 56.7499C55.022 57.2031 54.7407 57.2656 53.6313 57.2656C52.6001 57.2656 52.2251 57.1874 51.5063 56.8593C49.0532 55.7031 47.8032 53.1562 48.4751 50.6874C48.9595 48.8593 50.3657 47.4062 52.147 46.8593C52.9595 46.6093 54.6157 46.7031 55.5376 47.0624ZM52.2095 59.8593C53.2563 60.0624 54.2563 60.0312 55.3188 59.7812L56.2095 59.5781V61.2031V62.8124L55.1626 62.1093C53.8188 61.2187 53.3813 61.2031 52.1782 61.9999C51.6938 62.3281 51.1938 62.6562 51.1001 62.7187C50.9438 62.8124 50.897 62.4531 50.897 61.1718C50.897 59.6406 50.9282 59.4999 51.1782 59.6093C51.3188 59.6562 51.7876 59.7812 52.2095 59.8593Z" fill="#001A47"/>
<path d="M18.9751 45.4219C18.9126 45.4688 18.8657 46.0781 18.8657 46.75V47.9688H26.9126H34.9595V46.6406V45.3125H27.022C22.647 45.3125 19.022 45.3594 18.9751 45.4219Z" fill="#001A47"/>
<path d="M18.897 53.3125L18.9438 54.6094L22.272 54.6562L25.5845 54.6875V53.3594V52.0312H22.2251H18.8501L18.897 53.3125Z" fill="#001A47"/>
<path d="M30.897 53.3594V54.6875H32.9282H34.9595V53.3594V52.0312H32.9282H30.897V53.3594Z" fill="#001A47"/>
</g>
<defs>
<clipPath id="clip0_568_573">
<rect width="80" height="80" fill="white" transform="translate(0.271973)"/>
</clipPath>
</defs>
</svg>
