<svg width="92" height="93" viewBox="0 0 92 93" fill="none" xmlns="http://www.w3.org/2000/svg">
<g clip-path="url(#clip0_568_318)">
<path d="M17.0383 16.8595C16.7347 17.2016 16.699 17.5977 16.6454 20.8207L16.5739 24.4037H13.6445C10.3401 24.4037 9.66129 24.5658 9.21474 25.466C8.98253 25.9162 8.92895 26.8345 8.92895 31.1197V36.2513L6.58901 36.3233L4.24908 36.3953L3.73108 36.9715C3.21308 37.5476 3.21308 37.5656 3.21308 39.8703C3.21308 42.121 3.23094 42.193 3.67749 42.6432C3.92756 42.8952 4.30266 43.1293 4.51701 43.1653C4.90998 43.2193 4.90998 43.2733 4.96356 47.2165L4.99929 51.2317H3.53459C1.76625 51.2317 0.962452 51.5738 0.480176 52.4921C0.0514856 53.3203 0.158658 54.2926 0.962452 56.7053C2.05204 59.9823 4.01687 63.4934 6.28536 66.2662C7.75005 68.0307 7.75005 67.9407 5.91025 71.7398C4.76708 74.0985 4.67777 74.5847 5.16004 75.5749C5.89239 77.1234 2.08776 76.9794 42.2418 76.9794C81.2526 76.9794 78.5018 77.0514 79.2699 75.9531C79.9308 74.9808 91.4875 49.9173 91.5769 49.2691C91.6662 48.4409 91.2018 47.5046 90.398 46.9644C89.7906 46.5503 89.7371 46.5503 83.4675 46.5503C76.5906 46.5503 76.3941 46.5683 75.3045 47.5946C75.0187 47.8647 74.6436 48.4049 74.465 48.801L74.1256 49.5212V45.3079C74.1256 39.0601 74.4471 39.3482 67.1951 39.3482H62.1758L62.1223 34.0726C62.0687 28.1308 62.033 28.0048 60.7826 27.6627C60.0503 27.4466 37.812 27.3746 36.8117 27.5727C36.508 27.6447 36.0615 27.8968 35.8114 28.1488L35.3648 28.599V39.9063V51.2317H33.2214H31.0779L31.1137 47.2165C31.1673 43.2373 31.1673 43.2193 31.5602 43.1653C31.7746 43.1293 32.1675 42.8592 32.4176 42.5711C32.8463 42.049 32.8642 41.9229 32.8642 39.7803C32.8642 37.5837 32.8642 37.5476 32.3462 36.9715L31.8282 36.3953L29.4882 36.3233L27.1483 36.2513V31.2098C27.1483 24.1877 27.2912 24.4037 22.4327 24.4037H19.4676V21.1808C19.4676 17.8678 19.3247 16.9675 18.7531 16.6614C18.1994 16.3553 17.3956 16.4634 17.0383 16.8595ZM24.469 31.6959V36.2873H18.0386H11.6083V31.6959V27.1045H18.0386H24.469V31.6959ZM47.3325 34.7568V39.3482H42.6883H38.0442V34.7568V30.1654H42.6883H47.3325V34.7568ZM59.443 34.7928L59.4787 39.3482H54.7452H50.0118V34.7568V30.1654L54.7095 30.2015L59.3894 30.2555L59.443 34.7928ZM30.1848 39.8883V40.6086H22.3255C14.6984 40.6086 14.4483 40.6266 14.109 40.9687C13.4838 41.5988 13.6624 42.6251 14.4841 43.0393C14.8949 43.2553 16.1631 43.3094 21.7003 43.3094H28.3986V47.2705V51.2317H18.0386H7.6786V47.2885V43.3634L8.48239 43.2553C9.5184 43.1473 10.0007 42.7152 10.0007 41.9229C10.0007 40.8606 9.55412 40.6086 7.58929 40.6086H5.89239V39.8883V39.1681H18.0386H30.1848V39.8883ZM47.3325 46.6403V51.2317H42.6883H38.0442V46.6403V42.049H42.6883H47.3325V46.6403ZM59.443 46.6764L59.4787 51.2317H54.7452H50.0118V46.6403V42.049L54.7095 42.085L59.3894 42.139L59.443 46.6764ZM71.4463 46.6403V51.2317H66.8021H62.158V46.6403V42.049H66.8021H71.4463V46.6403ZM88.7725 49.3231C88.7725 49.3592 83.3603 61.0086 81.0382 65.9421L80.8596 66.3562H73.9827C67.1594 66.3562 67.0879 66.3562 66.6771 66.7523C65.9626 67.4365 66.2305 68.4808 67.2308 68.877C67.5345 68.985 69.9637 69.057 73.6076 69.057C76.8406 69.057 79.4842 69.129 79.4842 69.2191C79.4842 69.2911 78.9662 70.4614 78.3232 71.8298L77.1622 74.2786H42.4382H7.69646L8.67888 72.1539C9.2326 71.0016 9.7506 69.8312 9.85778 69.5612L10.0364 69.057L35.9186 69.021L61.7829 68.967L62.1758 68.5709C62.6581 68.0847 62.6939 67.2205 62.2473 66.7163C61.9258 66.3562 61.7472 66.3562 35.8114 66.3562H9.67915L9.35764 65.8701C9.17902 65.582 8.64315 64.8798 8.14301 64.2856C6.89267 62.7551 5.62446 60.7745 4.73135 58.884C3.98115 57.3175 3.03446 54.6887 3.03446 54.1846C3.03446 53.9685 8.37522 53.9325 38.455 53.9325H73.8755L74.7865 53.4824C75.8761 52.9242 76.5906 51.9339 76.7513 50.7456C76.9657 49.1971 76.7513 49.2511 83.146 49.2511C86.2361 49.2511 88.7725 49.2871 88.7725 49.3231Z" fill="#001A47"/>
</g>
<defs>
<clipPath id="clip0_568_318">
<rect width="91.4539" height="92.1874" fill="white" transform="translate(0.176514 0.636719)"/>
</clipPath>
</defs>
</svg>
