<svg width="92" height="62" viewBox="0 0 92 62" fill="none" xmlns="http://www.w3.org/2000/svg">
<path d="M16.8806 0.936314C16.5773 1.27886 16.5416 1.6755 16.4881 4.90266L16.4167 8.4904H13.4907C10.19 8.4904 9.51198 8.65266 9.06593 9.5541C8.83399 10.0048 8.78047 10.9243 8.78047 15.2152V20.3534L6.4432 20.4255L4.10594 20.4976L3.58853 21.0745C3.07112 21.6515 3.07112 21.6695 3.07112 23.9772C3.07112 26.2308 3.08896 26.3029 3.53501 26.7536C3.78479 27.006 4.15947 27.2404 4.37357 27.2765C4.76608 27.3305 4.76608 27.3846 4.81961 31.3329L4.85529 35.3534H3.39227C1.62595 35.3534 0.823069 35.6959 0.341343 36.6154C-0.0868576 37.4447 0.0201925 38.4183 0.823069 40.8342C1.91141 44.1154 3.874 47.631 6.13989 50.4075C7.60291 52.1743 7.60291 52.0842 5.76522 55.8882C4.62335 58.25 4.53414 58.7368 5.01587 59.7284C5.74738 61.2789 1.9471 61.1346 42.0552 61.1346C81.0215 61.1346 78.2739 61.2068 79.0411 60.107C79.7012 59.1334 91.2448 34.0373 91.334 33.3882C91.4232 32.5589 90.9593 31.6214 90.1564 31.0805C89.5498 30.6659 89.4963 30.6659 83.2339 30.6659C76.3648 30.6659 76.1686 30.6839 75.0802 31.7116C74.7947 31.982 74.4201 32.5229 74.2417 32.9195L73.9027 33.6406V29.4219C73.9027 23.1659 74.2238 23.4543 66.9801 23.4543H61.9666L61.913 18.1719C61.8595 12.2224 61.8238 12.0962 60.5749 11.7536C59.8434 11.5373 37.6305 11.4652 36.6314 11.6635C36.328 11.7356 35.882 11.988 35.6322 12.2404L35.1862 12.6911V24.0132V35.3534H33.0452H30.9042L30.9399 31.3329C30.9934 27.3486 30.9934 27.3305 31.3859 27.2765C31.6 27.2404 31.9925 26.97 32.2423 26.6815C32.6705 26.1587 32.6883 26.0325 32.6883 23.887C32.6883 21.6875 32.6883 21.6515 32.1709 21.0745L31.6535 20.4976L29.3163 20.4255L26.979 20.3534V15.3053C26.979 8.27406 27.1217 8.4904 22.2688 8.4904H19.3071V5.26324C19.3071 1.94593 19.1643 1.04449 18.5934 0.737995C18.0403 0.431503 17.2374 0.539677 16.8806 0.936314ZM24.3027 15.7921V20.3894H17.8797H11.4567V15.7921V11.1947H17.8797H24.3027V15.7921ZM47.1401 18.857V23.4543H42.5013H37.8624V18.857V14.2596H42.5013H47.1401V18.857ZM59.2368 18.893L59.2725 23.4543H54.5444H49.8164V18.857V14.2596L54.5087 14.2957L59.1833 14.3498L59.2368 18.893ZM30.0121 23.9952V24.7164H22.1617C14.5433 24.7164 14.2935 24.7344 13.9546 25.0769C13.3301 25.7079 13.5085 26.7356 14.3292 27.1503C14.7396 27.3666 16.0064 27.4207 21.5373 27.4207H28.2279V31.387V35.3534H17.8797H7.53155V31.4051V27.4748L8.33442 27.3666C9.36924 27.2584 9.85097 26.8257 9.85097 26.0325C9.85097 24.9688 9.40492 24.7164 7.44234 24.7164H5.74738V23.9952V23.2741H17.8797H30.0121V23.9952ZM47.1401 30.756V35.3534H42.5013H37.8624V30.756V26.1587H42.5013H47.1401V30.756ZM59.2368 30.7921L59.2725 35.3534H54.5444H49.8164V30.756V26.1587L54.5087 26.1947L59.1833 26.2488L59.2368 30.7921ZM71.2264 30.756V35.3534H66.5876H61.9487V30.756V26.1587H66.5876H71.2264V30.756ZM88.5329 33.4423C88.5329 33.4784 83.1268 45.143 80.8074 50.083L80.629 50.4976H73.7599C66.9444 50.4976 66.873 50.4976 66.4627 50.8942C65.749 51.5793 66.0166 52.625 67.0158 53.0217C67.3191 53.1298 69.7455 53.2019 73.3853 53.2019C76.6146 53.2019 79.2552 53.2741 79.2552 53.3642C79.2552 53.4363 78.7378 54.6082 78.0955 55.9784L76.9358 58.4303H42.2515H7.54939L8.53068 56.3029C9.08377 55.1491 9.60118 53.9772 9.70823 53.7067L9.88665 53.2019L35.7393 53.1659L61.574 53.1118L61.9666 52.7152C62.4483 52.2284 62.484 51.363 62.0379 50.8582C61.7168 50.4976 61.5384 50.4976 35.6322 50.4976H9.52982L9.20867 50.0108C9.03025 49.7224 8.495 49.0192 7.99543 48.4243C6.74651 46.8918 5.47975 44.9087 4.58767 43.0156C3.83832 41.4471 2.89271 38.8149 2.89271 38.3101C2.89271 38.0938 8.22737 38.0577 38.2728 38.0577H73.6529L74.5628 37.607C75.6511 37.0481 76.3648 36.0565 76.5254 34.8666C76.7395 33.3161 76.5254 33.3702 82.9127 33.3702C85.9993 33.3702 88.5329 33.4063 88.5329 33.4423Z" fill="#97CADB"/>
</svg>
