<svg width="81" height="80" viewBox="0 0 81 80" fill="none" xmlns="http://www.w3.org/2000/svg">
<g clip-path="url(#clip0_568_551)">
<path d="M24.3526 13.5312C23.8994 13.75 23.3682 14.5469 23.3682 14.9844C23.3682 15.0781 24.8526 19.1094 26.6651 23.9375C28.4776 28.7812 30.0088 32.8594 30.0401 33C30.1182 33.2656 29.6963 33.2812 22.8057 33.2812C16.1026 33.2812 15.4463 33.25 15.1494 33C14.6494 32.6094 14.6338 32.5469 12.8994 27.0312C12.0244 24.2344 11.0869 21.5312 10.8057 21.0156C8.77444 17.125 3.00882 15.3281 0.883815 17.9219C0.633815 18.2188 0.352565 18.7656 0.258815 19.125C0.11819 19.5781 0.0869401 22.6406 0.11819 30.0781C0.18069 41.5156 0.133815 41.0469 1.25882 43.3594C2.69632 46.3438 5.44631 48.6406 8.75881 49.625C9.60256 49.875 10.6807 49.9062 19.8994 49.9531C25.4932 49.9844 30.0869 50.0625 30.0869 50.1406C30.0869 50.2031 28.6338 54.125 26.8682 58.8438C25.0869 63.5625 23.5713 67.6406 23.4932 67.9219C23.3057 68.5938 23.6651 69.4375 24.2901 69.75C24.6807 69.9531 25.4151 70 28.5088 70C32.6963 70 33.3994 69.9062 35.0713 69.1094C37.1338 68.125 37.6026 67.5156 43.3526 58.2812L48.4619 50.0781L62.4307 50L76.4151 49.9219L77.2276 49.5C78.3057 48.9219 79.1026 48.1094 79.5713 47.0781C80.3994 45.2812 80.1807 43.6719 78.8369 41.6719C76.1494 37.6562 71.7432 34.75 66.6494 33.6562C65.6807 33.4375 64.0088 33.3906 56.9619 33.3281L48.4463 33.25L43.2901 24.9688C37.7276 16.0312 37.2276 15.3594 35.3994 14.3906C33.6963 13.4844 33.2119 13.4062 28.8369 13.3281C25.3838 13.2812 24.7901 13.3125 24.3526 13.5312ZM33.0713 16.9844C34.6026 17.4844 35.1182 18.1562 39.9932 25.9844C42.4463 29.9219 44.4619 33.1719 44.4619 33.2188C44.4619 33.25 42.0401 33.2812 39.0869 33.2812H33.7276L30.6494 25.1094C28.9619 20.6094 27.5869 16.875 27.5869 16.8281C27.5869 16.7656 28.6338 16.7188 29.9151 16.7188C31.6807 16.7188 32.4307 16.7812 33.0713 16.9844ZM5.58694 20.4688C6.58694 20.9375 7.30569 21.5938 7.77444 22.4531C8.00882 22.875 8.93069 25.5469 9.83694 28.4062C10.7276 31.2656 11.6494 33.9062 11.8682 34.2812C12.3682 35.1406 13.0401 35.7188 14.1494 36.2344L15.0088 36.6406L40.3994 36.7188L65.7901 36.7969L66.9776 37.1406C69.8369 37.9531 72.3838 39.4219 74.3057 41.3906C76.7276 43.8594 77.2276 45.125 76.1963 46.1562L75.7119 46.6406L63.1963 46.6875C51.3994 46.7188 50.6807 46.7031 50.7744 46.4531C50.8369 46.3125 51.4463 45.2969 52.1182 44.2031C53.3994 42.1719 53.5557 41.6875 53.1963 40.875C52.7744 39.9688 51.2901 39.75 50.6026 40.5156C50.4307 40.7031 46.9619 46.1719 42.9307 52.6562C38.8838 59.1406 35.2901 64.75 34.9307 65.125C34.5869 65.5 33.8994 65.9844 33.3994 66.2188C32.5869 66.5938 32.3057 66.625 30.0557 66.6875C28.3057 66.7344 27.5869 66.7031 27.5869 66.5781C27.5869 66.4844 29.6026 61.0469 32.0557 54.5C34.5244 47.9375 36.6026 42.3594 36.6807 42.0781C36.9463 41.1094 36.1026 40 35.0869 40C34.6338 40 33.8838 40.4062 33.6963 40.7656C33.6026 40.9219 33.1026 42.2031 32.5869 43.5938C32.0713 44.9844 31.5713 46.2656 31.4776 46.4375C31.3213 46.7188 31.0244 46.7344 20.8213 46.6875C10.4619 46.6406 10.3057 46.625 9.29006 46.2812C6.57131 45.375 4.57131 43.2969 3.74319 40.5469C3.43069 39.5 3.41507 38.9688 3.49319 26.7344L3.52444 19.9531L4.22757 20.0469C4.60257 20.1094 5.22757 20.2969 5.58694 20.4688Z" fill="#001A47"/>
</g>
<defs>
<clipPath id="clip0_568_551">
<rect width="80" height="80" fill="white" transform="translate(0.0869141)"/>
</clipPath>
</defs>
</svg>
