<svg width="268" height="84" viewBox="0 0 268 84" fill="none" xmlns="http://www.w3.org/2000/svg">
<g clip-path="url(#clip0_581_6848)">
<path d="M159.219 63.9766H162.756V72.0161H159.219V63.9766Z" fill="#223946"/>
<path d="M161.042 72.016C161.042 73.8009 159.587 75.2349 157.811 75.2349C156.035 75.2349 154.58 73.7856 154.58 72.016C154.58 70.2464 156.035 68.7971 157.811 68.7971C159.587 68.7971 161.042 70.2464 161.042 72.016Z" fill="#080707"/>
<path d="M167.64 72.016C167.64 73.8009 166.185 75.2349 164.409 75.2349C162.633 75.2349 161.179 73.7856 161.179 72.016C161.179 70.2464 162.633 68.7971 164.409 68.7971C166.185 68.7971 167.64 70.2464 167.64 72.016Z" fill="#080707"/>
<path d="M166.017 72.0161C166.017 72.9009 165.297 73.6179 164.409 73.6179C163.521 73.6179 162.802 72.9009 162.802 72.0161C162.802 71.1313 163.521 70.4143 164.409 70.4143C165.297 70.4143 166.017 71.1313 166.017 72.0161Z" fill="#223946"/>
<path d="M157.811 73.6179C156.923 73.6179 156.203 72.9008 156.203 72.0161C156.203 71.1314 156.923 70.4143 157.811 70.4143C158.699 70.4143 159.419 71.1314 159.419 72.0161C159.419 72.9008 158.699 73.6179 157.811 73.6179Z" fill="#223946"/>
<path d="M154.441 71.9399C154.441 73.7247 152.987 75.1587 151.21 75.1587C149.434 75.1587 147.98 73.7095 147.98 71.9399C147.98 70.1702 149.434 68.7209 151.21 68.7209C152.987 68.7209 154.441 70.1702 154.441 71.9399Z" fill="#080707"/>
<path d="M151.211 73.5418C150.324 73.5418 149.604 72.8246 149.604 71.94C149.604 71.0553 150.324 70.3381 151.211 70.3381C152.099 70.3381 152.819 71.0553 152.819 71.94C152.819 72.8246 152.099 73.5418 151.211 73.5418Z" fill="#223946"/>
<path d="M147.69 71.9399C147.69 73.7247 146.235 75.1587 144.459 75.1587C142.683 75.1587 141.228 73.7095 141.228 71.9399C141.228 70.1702 142.683 68.7209 144.459 68.7209C146.235 68.7209 147.69 70.1702 147.69 71.9399Z" fill="#080707"/>
<path d="M144.459 73.5418C143.571 73.5418 142.851 72.8246 142.851 71.94C142.851 71.0553 143.571 70.3381 144.459 70.3381C145.347 70.3381 146.067 71.0553 146.067 71.94C146.067 72.8246 145.347 73.5418 144.459 73.5418Z" fill="#223946"/>
<path d="M216.454 72.5043C216.454 73.9536 215.276 75.1282 213.822 75.1282C212.367 75.1282 211.188 73.9536 211.188 72.5043C211.188 71.055 212.367 69.8804 213.822 69.8804C215.276 69.8804 216.454 71.055 216.454 72.5043Z" fill="#080707"/>
<path d="M215.076 72.5042C215.076 73.1907 214.525 73.7399 213.836 73.7399C213.147 73.7399 212.596 73.1907 212.596 72.5042C212.596 71.8177 213.147 71.2686 213.836 71.2686C214.525 71.2686 215.076 71.8177 215.076 72.5042Z" fill="#223946"/>
<path d="M211.188 67.2566H212.152V72.5044H211.188V67.2566Z" fill="#080707"/>
<path d="M208.094 64.6631H214.847V68.7821H208.094V64.6631Z" fill="#223946"/>
<path d="M42.6803 40.0562L31.3342 8.66064L37.5814 8.72166L64.9285 43.6565L42.6803 40.0562Z" fill="#99CADC"/>
<path d="M54.0878 46.4024L42.6804 40.0562L159.459 37.5506C159.459 37.5506 188.94 35.7237 210.346 34.8389C231.752 33.9693 240.02 52.5809 240.02 52.5809C240.02 52.5809 235.871 67.3786 207.575 67.3786C186.873 67.3786 136.619 71.284 85.8294 61.1391C75.157 59.0034 62.4328 51.1011 54.0725 46.3872L54.0878 46.4024Z" fill="#99CADC"/>
<path d="M84.6502 48.7061C83.7315 52.6114 84.1143 58.2712 91.6937 62.2071C91.3416 62.1613 91.0047 62.2681 90.6679 62.2376C89.0601 61.9477 87.4524 61.6426 85.8293 61.307C82.7975 60.6968 79.5973 59.6289 76.3818 58.2864C73.0592 55.3727 72.9213 51.5436 73.5491 48.7061H84.6502Z" fill="#001C47"/>
<path d="M187.928 51.6351C187.928 52.0775 188.296 52.4436 188.74 52.4436C189.184 52.4436 189.551 52.0775 189.551 51.6351V50.5825C189.551 50.1401 189.184 49.7739 188.74 49.7739C188.296 49.7739 187.928 50.1401 187.928 50.5825V51.6351Z" fill="#001C47"/>
<path d="M183.688 51.6351C183.688 52.0775 184.054 52.4436 184.499 52.4436C184.943 52.4436 185.311 52.0775 185.311 51.6351V50.5825C185.311 50.1401 184.943 49.7739 184.499 49.7739C184.054 49.7739 183.688 50.1401 183.688 50.5825V51.6351Z" fill="#001C47"/>
<path d="M179.446 51.6351C179.446 52.0775 179.813 52.4436 180.257 52.4436C180.701 52.4436 181.069 52.0775 181.069 51.6351V50.5825C181.069 50.1401 180.701 49.7739 180.257 49.7739C179.813 49.7739 179.446 50.1401 179.446 50.5825V51.6351Z" fill="#001C47"/>
<path d="M175.219 51.6351C175.219 52.0775 175.587 52.4436 176.031 52.4436C176.475 52.4436 176.843 52.0775 176.843 51.6351V50.5825C176.843 50.1401 176.475 49.7739 176.031 49.7739C175.587 49.7739 175.219 50.1401 175.219 50.5825V51.6351Z" fill="#001C47"/>
<path d="M170.979 51.6351C170.979 52.0775 171.346 52.4436 171.791 52.4436C172.235 52.4436 172.602 52.0775 172.602 51.6351V50.5825C172.602 50.1401 172.235 49.7739 171.791 49.7739C171.346 49.7739 170.979 50.1401 170.979 50.5825V51.6351Z" fill="#001C47"/>
<path d="M166.752 51.6351C166.752 52.0775 167.12 52.4436 167.564 52.4436C168.008 52.4436 168.375 52.0775 168.375 51.6351V50.5825C168.375 50.1401 168.008 49.7739 167.564 49.7739C167.12 49.7739 166.752 50.1401 166.752 50.5825V51.6351Z" fill="#001C47"/>
<path d="M162.511 51.6351C162.511 52.0775 162.878 52.4436 163.322 52.4436C163.766 52.4436 164.134 52.0775 164.134 51.6351V50.5825C164.134 50.1401 163.766 49.7739 163.322 49.7739C162.878 49.7739 162.511 50.1401 162.511 50.5825V51.6351Z" fill="#001C47"/>
<path d="M158.284 51.6351C158.284 52.0775 158.652 52.4436 159.096 52.4436C159.54 52.4436 159.908 52.0775 159.908 51.6351V50.5825C159.908 50.1401 159.54 49.7739 159.096 49.7739C158.652 49.7739 158.284 50.1401 158.284 50.5825V51.6351Z" fill="#001C47"/>
<path d="M154.043 51.6351C154.043 52.0775 154.411 52.4436 154.855 52.4436C155.299 52.4436 155.666 52.0775 155.666 51.6351V50.5825C155.666 50.1401 155.299 49.7739 154.855 49.7739C154.411 49.7739 154.043 50.1401 154.043 50.5825V51.6351Z" fill="#001C47"/>
<path d="M149.802 51.6351C149.802 52.0775 150.169 52.4436 150.613 52.4436C151.057 52.4436 151.425 52.0775 151.425 51.6351V50.5825C151.425 50.1401 151.057 49.7739 150.613 49.7739C150.169 49.7739 149.802 50.1401 149.802 50.5825V51.6351Z" fill="#001C47"/>
<path d="M145.576 51.6351C145.576 52.0775 145.943 52.4436 146.387 52.4436C146.831 52.4436 147.199 52.0775 147.199 51.6351V50.5825C147.199 50.1401 146.831 49.7739 146.387 49.7739C145.943 49.7739 145.576 50.1401 145.576 50.5825V51.6351Z" fill="#001C47"/>
<path d="M141.334 51.6351C141.334 52.0775 141.702 52.4436 142.146 52.4436C142.59 52.4436 142.957 52.0775 142.957 51.6351V50.5825C142.957 50.1401 142.59 49.7739 142.146 49.7739C141.702 49.7739 141.334 50.1401 141.334 50.5825V51.6351Z" fill="#001C47"/>
<path d="M137.108 51.6351C137.108 52.0775 137.476 52.4436 137.92 52.4436C138.364 52.4436 138.731 52.0775 138.731 51.6351V50.5825C138.731 50.1401 138.364 49.7739 137.92 49.7739C137.476 49.7739 137.108 50.1401 137.108 50.5825V51.6351Z" fill="#001C47"/>
<path d="M132.867 51.6351C132.867 52.0775 133.234 52.4436 133.678 52.4436C134.122 52.4436 134.49 52.0775 134.49 51.6351V50.5825C134.49 50.1401 134.122 49.7739 133.678 49.7739C133.234 49.7739 132.867 50.1401 132.867 50.5825V51.6351Z" fill="#001C47"/>
<path d="M128.625 51.6351C128.625 52.0775 128.993 52.4436 129.437 52.4436C129.881 52.4436 130.248 52.0775 130.248 51.6351V50.5825C130.248 50.1401 129.881 49.7739 129.437 49.7739C128.993 49.7739 128.625 50.1401 128.625 50.5825V51.6351Z" fill="#001C47"/>
<path d="M124.4 51.6351C124.4 52.0775 124.767 52.4436 125.211 52.4436C125.656 52.4436 126.023 52.0775 126.023 51.6351V50.5825C126.023 50.1401 125.656 49.7739 125.211 49.7739C124.767 49.7739 124.4 50.1401 124.4 50.5825V51.6351Z" fill="#001C47"/>
<path d="M120.158 51.6351C120.158 52.0775 120.526 52.4436 120.97 52.4436C121.414 52.4436 121.781 52.0775 121.781 51.6351V50.5825C121.781 50.1401 121.414 49.7739 120.97 49.7739C120.526 49.7739 120.158 50.1401 120.158 50.5825V51.6351Z" fill="#001C47"/>
<path d="M115.932 51.6351C115.932 52.0775 116.3 52.4436 116.744 52.4436C117.188 52.4436 117.555 52.0775 117.555 51.6351V50.5825C117.555 50.1401 117.188 49.7739 116.744 49.7739C116.3 49.7739 115.932 50.1401 115.932 50.5825V51.6351Z" fill="#001C47"/>
<path d="M111.691 51.6351C111.691 52.0775 112.058 52.4436 112.502 52.4436C112.947 52.4436 113.314 52.0775 113.314 51.6351V50.5825C113.314 50.1401 112.947 49.7739 112.502 49.7739C112.058 49.7739 111.691 50.1401 111.691 50.5825V51.6351Z" fill="#001C47"/>
<path d="M107.449 51.6351C107.449 52.0775 107.817 52.4436 108.261 52.4436C108.705 52.4436 109.072 52.0775 109.072 51.6351V50.5825C109.072 50.1401 108.705 49.7739 108.261 49.7739C107.817 49.7739 107.449 50.1401 107.449 50.5825V51.6351Z" fill="#001C47"/>
<path d="M103.223 51.6351C103.223 52.0775 103.591 52.4436 104.035 52.4436C104.479 52.4436 104.846 52.0775 104.846 51.6351V50.5825C104.846 50.1401 104.479 49.7739 104.035 49.7739C103.591 49.7739 103.223 50.1401 103.223 50.5825V51.6351Z" fill="#001C47"/>
<path d="M98.9819 51.6351C98.9819 52.0775 99.3494 52.4436 99.7935 52.4436C100.238 52.4436 100.605 52.0775 100.605 51.6351V50.5825C100.605 50.1401 100.238 49.7739 99.7935 49.7739C99.3494 49.7739 98.9819 50.1401 98.9819 50.5825V51.6351Z" fill="#001C47"/>
<path d="M94.7559 51.6351C94.7559 52.0775 95.1234 52.4436 95.5674 52.4436C96.0114 52.4436 96.3789 52.0775 96.3789 51.6351V50.5825C96.3789 50.1401 96.0114 49.7739 95.5674 49.7739C95.1234 49.7739 94.7559 50.1401 94.7559 50.5825V51.6351Z" fill="#001C47"/>
<path d="M90.5144 51.6351C90.5144 52.0775 90.8819 52.4436 91.326 52.4436C91.77 52.4436 92.1375 52.0775 92.1375 51.6351V50.5825C92.1375 50.1401 91.77 49.7739 91.326 49.7739C90.8819 49.7739 90.5144 50.1401 90.5144 50.5825V51.6351Z" fill="#001C47"/>
<path d="M86.2732 51.6351C86.2732 52.0775 86.6406 52.4436 87.0847 52.4436C87.5287 52.4436 87.8963 52.0775 87.8963 51.6351V50.5825C87.8963 50.1401 87.5287 49.7739 87.0847 49.7739C86.6406 49.7739 86.2732 50.1401 86.2732 50.5825V51.6351Z" fill="#001C47"/>
<path d="M124.522 62.6802V67.9891C124.522 67.9891 139.59 75.571 159.587 71.147V60.0868C159.587 60.0868 148.394 54.2288 124.522 62.6955V62.6802Z" fill="#001C47"/>
<path d="M145.76 72.5043C139.253 62.0239 159.572 60.0712 159.572 60.0712C159.572 60.0712 148.379 54.2131 124.507 62.6799V67.9888C124.507 67.9888 127.723 69.2092 131.658 70.5364C135.272 71.5127 140.095 72.4128 145.745 72.5196L145.76 72.5043Z" fill="#457084"/>
<path d="M88.2946 58.6373L87.0237 49.8655L93.96 57.8746L162.512 54.5794L174.746 60.6205H162.971L88.2946 58.6373Z" fill="#457084"/>
<path d="M157.673 52.123L92.2451 57.8744L168.575 57.5692L157.673 52.123Z" fill="#001C47"/>
<path d="M27.2153 42.3142L63.9791 45.0144V42.8177L27.2153 42.3142Z" fill="#001C47"/>
<path d="M51.791 45.1208L54.0878 46.4022C56.2314 47.6074 58.6507 49.0261 61.2537 50.5059L63.9792 45.014L54.7921 44.3428L51.791 45.136V45.1208Z" fill="#001C47"/>
<path d="M225.413 37.8899H221.018V40.8494H230.221C228.797 39.7816 227.189 38.7594 225.413 37.8899Z" fill="#001C47"/>
<path d="M41.2161 74.8418H240.089V75.9267H41.2161V74.8418Z" fill="#E2E2E2"/>
</g>
<defs>
<clipPath id="clip0_581_6848">
<rect width="213" height="68" fill="white" transform="translate(27.0886 8)"/>
</clipPath>
</defs>
</svg>
