<svg width="214" height="81" viewBox="0 0 214 81" fill="none" xmlns="http://www.w3.org/2000/svg">
<g style="mix-blend-mode:multiply">
<path d="M175.996 56.1377C175.996 56.1377 175.971 56.0999 175.959 56.0747C175.921 56.0999 175.871 56.1503 175.859 56.2133C175.846 56.314 175.833 56.3896 175.884 56.5155C175.896 56.4903 175.921 56.4526 175.934 56.4148C175.971 56.3518 176.034 56.2384 176.034 56.2007C176.034 56.1755 176.009 56.1503 175.996 56.1251V56.1377Z" fill="#77A2CC"/>
</g>
<g style="mix-blend-mode:multiply">
<path d="M175.745 57.3216C175.745 57.3216 175.795 57.2712 175.87 57.1074C175.971 56.8807 175.971 56.6918 175.946 56.6792C175.971 56.7296 175.946 56.7548 175.921 56.8177C175.921 56.8807 175.921 56.9059 175.87 56.9815C175.845 57.0193 175.833 57.0445 175.82 57.0697C175.782 57.1326 175.757 57.1578 175.757 57.2208C175.757 57.246 175.757 57.2838 175.757 57.3341L175.745 57.3216Z" fill="#77A2CC"/>
</g>
<g style="mix-blend-mode:multiply">
<path d="M175.619 57.4602C175.619 57.4602 175.556 57.4098 175.531 57.3972C175.531 57.498 175.518 57.5609 175.506 57.6239C175.531 57.5735 175.569 57.5232 175.619 57.4602Z" fill="#77A2CC"/>
</g>
<g style="mix-blend-mode:multiply">
<path d="M173.579 63.6946C173.579 63.6946 173.592 63.7328 173.605 63.7455C173.605 63.7455 173.605 63.7455 173.579 63.6946Z" fill="#77A2CC"/>
</g>
<g style="mix-blend-mode:multiply">
<path d="M159.253 63.4806C159.253 63.4806 159.279 63.5814 159.304 63.6192C159.43 63.7577 159.581 63.8585 159.719 63.934L159.782 63.9718C159.858 64.0222 159.895 64.0474 159.946 64.1104C159.984 64.1482 160.021 64.1985 160.097 64.2615C160.248 64.4 160.474 64.5386 160.651 64.5386C160.688 64.5386 160.726 64.5386 160.764 64.5134C160.802 64.5008 160.827 64.4882 160.852 64.4756C160.94 64.4378 161.028 64.4001 161.016 64.2741V64.2237C161.016 64.2237 160.991 64.0852 160.978 64.0096C161.016 64.0726 161.054 64.123 161.154 64.2111C161.217 64.2615 161.255 64.3245 161.305 64.3749C161.381 64.463 161.431 64.526 161.519 64.526C161.607 64.5134 161.658 64.4882 161.708 64.463C161.746 64.4378 161.784 64.4252 161.821 64.4252C161.91 64.4126 162.048 64.3371 162.061 64.3371C162.124 64.2237 162.199 64.1734 162.249 64.1356C162.325 64.0726 162.413 64.0096 162.363 63.8711C162.363 63.8459 162.338 63.8207 162.338 63.7955C162.3 63.7073 162.275 63.6066 162.174 63.6066C162.124 63.6066 162.073 63.6318 162.01 63.6821C161.947 63.7199 161.91 63.7703 161.872 63.7955C161.821 63.8459 161.771 63.8837 161.746 63.8837C161.67 63.8081 161.62 63.7829 161.57 63.7577C161.545 63.7325 161.57 63.7199 161.595 63.6947C161.658 63.657 161.721 63.6318 161.759 63.6066C161.847 63.5562 161.897 63.531 161.947 63.4554C161.985 63.405 161.985 63.3547 161.973 63.3169C161.947 63.2539 161.872 63.2413 161.721 63.2413C161.658 63.2413 161.607 63.2035 161.545 63.1532C161.469 63.1028 161.381 63.0398 161.255 63.0398C161.117 63.0398 161.079 63.0776 161.028 63.1154C161.003 63.128 160.991 63.1406 160.953 63.1658C160.877 63.2035 160.777 63.1532 160.726 63.2287C160.701 63.2665 160.726 63.3295 160.751 63.3925C160.789 63.4806 160.802 63.5436 160.802 63.6192C160.802 63.657 160.802 63.6947 160.814 63.7325C160.802 63.7199 160.777 63.7073 160.764 63.6947C160.739 63.6695 160.688 63.6444 160.688 63.6318C160.688 63.5814 160.688 63.5184 160.676 63.4932C160.676 63.3421 160.688 63.2413 160.638 63.1783C160.6 63.1406 160.563 63.128 160.487 63.1532C160.424 63.128 160.374 63.0902 160.248 63.1532C160.172 63.1909 160.135 63.2413 160.097 63.2665C159.996 63.2665 159.971 63.2413 159.946 63.2161C159.921 63.1783 159.883 63.1406 159.832 63.1406C159.795 63.1406 159.757 63.1658 159.707 63.2035C159.644 63.2539 159.618 63.2791 159.593 63.3043C159.568 63.3169 159.543 63.3421 159.505 63.3799C159.48 63.4051 159.442 63.4176 159.404 63.4176C159.354 63.4176 159.304 63.4428 159.291 63.4806H159.253Z" fill="#77A2CC"/>
</g>
<g style="mix-blend-mode:multiply">
<path d="M62.0309 22.7612C62.0183 22.9123 62.1442 23.1642 62.1568 23.1894C62.1694 23.2272 62.3205 23.5169 62.459 23.5798C62.4841 23.5798 62.4967 23.5798 62.5093 23.5798C62.5974 23.5798 62.6352 23.4791 62.6604 23.3909C62.673 23.3531 62.6981 23.3028 62.7107 23.265C62.7359 23.2272 62.7611 23.1894 62.7737 23.1642C62.7989 23.1138 62.8114 23.0886 62.8618 23.076C62.9247 23.076 62.9247 23.1012 62.9499 23.1768C62.9751 23.2776 62.9499 23.3531 62.9247 23.4665C62.9247 23.5043 62.8996 23.5295 62.8996 23.5672C62.887 23.6302 62.8618 23.6806 62.8492 23.7184C62.824 23.7939 62.7988 23.8569 62.7988 23.9577C62.7988 24.0207 62.7988 24.0458 62.7988 24.071C62.7988 24.1088 62.7863 24.134 62.7988 24.197C62.7988 24.2474 62.824 24.2978 62.8366 24.3229C62.8114 24.3229 62.7611 24.3229 62.7233 24.2978C62.673 24.2978 62.6604 24.2978 62.6478 24.3229C62.6226 24.3607 62.6478 24.3859 62.673 24.4615C62.6981 24.5245 62.7359 24.6 62.7737 24.6882C62.7989 24.7512 62.824 24.8141 62.887 24.8141C62.9499 24.8141 62.9877 24.726 63.0128 24.6504C63.0506 24.6504 63.101 24.6882 63.1387 24.726C63.1891 24.7638 63.2395 24.8141 63.3024 24.8645C63.3779 24.9275 63.3779 24.9401 63.3779 24.9527C63.3402 25.0031 63.2898 25.0534 63.2898 25.1542C63.2772 25.3683 63.2772 25.7965 63.3779 26.1114C63.4409 26.2752 63.529 26.4263 63.6045 26.5774C63.68 26.7034 63.743 26.8167 63.7934 26.9301C63.8437 27.056 63.894 27.2198 63.957 27.4087C64.0199 27.6228 64.0955 27.8369 64.1584 28.0007C64.2214 28.1644 64.448 28.706 64.5864 29.1594C64.6494 29.3735 64.662 29.512 64.6746 29.6506C64.6746 29.7513 64.6871 29.8521 64.7249 29.9655C64.8004 30.23 65.1277 30.9983 65.2536 31.2501C65.3292 31.4013 65.3166 31.4391 65.2788 31.4894C65.2662 31.5272 65.241 31.5776 65.241 31.6406C65.241 31.7665 65.2914 31.8169 65.3669 31.8925C65.4047 31.9303 65.4299 31.9681 65.4802 32.0184C65.5432 32.094 65.518 32.157 65.4802 32.2703C65.4551 32.3585 65.4299 32.4592 65.4676 32.5726C65.518 32.7111 65.5809 32.7867 65.6565 32.8623C65.6942 32.9001 65.732 32.9379 65.7698 33.0008C65.8327 33.089 65.8327 33.1646 65.8453 33.2653C65.8453 33.3283 65.8579 33.3913 65.8831 33.4668C65.9208 33.5928 65.9838 33.6306 66.0341 33.6684C66.0719 33.6936 66.1223 33.7187 66.1726 33.7817C66.3111 33.9455 66.5251 34.0084 66.6636 34.0462C66.7643 34.0714 66.8524 34.084 66.9279 34.084C67.0034 34.084 67.079 34.084 67.1293 34.1092C67.2049 34.1344 67.2804 34.21 67.3559 34.3359C67.4441 34.4618 67.5951 34.4618 67.721 34.4618C67.8595 34.4618 67.998 34.3989 68.1239 34.3359C68.2623 34.2603 68.3378 34.21 68.363 34.1218C68.363 34.1218 68.4134 34.1218 68.4386 34.1218C68.5141 34.1218 68.6274 34.1218 68.7407 34.0462C68.7533 34.0462 68.7785 34.0084 68.8036 33.9958C68.854 33.9455 68.9043 33.8951 69.0051 33.8825C69.1687 33.8699 69.1687 33.7061 69.1687 33.618C69.1687 33.5928 69.1687 33.5676 69.1687 33.5424C69.1687 33.5046 69.1813 33.4795 69.1939 33.4543C69.1939 33.4039 69.2191 33.3661 69.2316 33.3031C69.2316 33.2653 69.2568 33.2653 69.2946 33.2401C69.3198 33.2276 69.3701 33.2023 69.3953 33.1646C69.4457 33.1016 69.4331 33.0008 69.4205 32.9127C69.4205 32.8749 69.4205 32.8371 69.4205 32.7993C69.4205 32.7615 69.4205 32.6986 69.4456 32.6356C69.4582 32.5474 69.4708 32.4341 69.4708 32.3333C69.4708 32.1822 69.3701 32.094 69.3072 32.0436C69.282 31.9932 69.3072 31.9806 69.3072 31.9681C69.3323 31.9429 69.3701 31.9051 69.3953 31.8547C69.4582 31.7539 69.4331 31.6406 69.4079 31.5902C69.4331 31.5524 69.4834 31.4391 69.5338 31.3761C69.5841 31.3005 69.6093 31.1494 69.6345 30.9605C69.6345 30.9227 69.6345 30.8849 69.6471 30.8597C69.6471 30.8345 69.6471 30.7967 69.6723 30.7589C69.6974 30.6456 69.7352 30.4693 69.7478 30.3307C69.7604 30.1796 69.6723 30.0914 69.5967 30.0032C69.5715 29.9781 69.5464 29.9529 69.5212 29.9277C69.4456 29.8395 69.4205 29.6506 69.4205 29.512C69.4205 29.3861 69.2442 29.3483 69.1687 29.3483C69.1309 29.2727 69.0051 29.0334 68.9421 28.9075C68.9169 28.8697 68.8918 28.8319 68.8792 28.7815C68.8162 28.6682 68.7659 28.5674 68.7155 28.4541C68.6526 28.3155 68.5015 28.177 68.426 28.114C68.4511 28.0636 68.4763 27.9755 68.5015 27.8999C68.5141 27.7865 68.5015 27.648 68.4512 27.5346C68.426 27.4717 68.426 27.4339 68.4512 27.3709C68.4512 27.3457 68.4511 27.3205 68.4637 27.2953C68.4637 27.245 68.4889 27.2198 68.5267 27.1946C68.5644 27.1568 68.6022 27.1064 68.6148 27.0308C68.64 26.9301 68.5896 26.8545 68.5644 26.8041C68.5519 26.779 68.5267 26.7538 68.5267 26.7286C68.5267 26.6782 68.6022 26.6026 68.6903 26.5019C68.7281 26.4641 68.7533 26.4389 68.7911 26.4011C68.9421 26.2248 68.8414 25.9729 68.8036 25.9099L68.8792 25.5069C68.8792 25.5069 68.8288 25.3053 68.7911 25.1542C68.7659 25.0408 68.7155 24.9653 68.6652 24.9149C68.64 24.8897 68.6274 24.8645 68.6148 24.8519C68.6148 24.8393 68.5896 24.8141 68.577 24.8015C68.5267 24.7134 68.4511 24.6 68.3882 24.4111C68.3504 24.2977 68.3127 24.2222 68.2875 24.1718C68.2497 24.1214 68.2245 24.071 68.2245 24.0081C68.2245 23.9199 68.2246 23.9199 68.2749 23.8695C68.3001 23.8569 68.3253 23.8317 68.3504 23.8066C68.3882 23.7688 68.4134 23.7562 68.4512 23.731C68.5141 23.6932 68.577 23.6428 68.6274 23.5295C68.6526 23.4791 68.6526 23.4413 68.6274 23.4161C68.6022 23.3657 68.5267 23.3657 68.5015 23.3657C68.4511 23.3657 68.4008 23.3657 68.363 23.3783C68.3378 23.3783 68.3001 23.3783 68.2875 23.3783C68.1868 23.3783 68.1113 23.4161 68.0735 23.5043C68.0357 23.5798 68.0231 23.6428 67.998 23.7058C67.9728 23.7058 67.9476 23.7058 67.9224 23.7058C67.8973 23.7058 67.8721 23.7058 67.8469 23.6932C67.784 23.6932 67.7714 23.6806 67.7336 23.6428C67.7084 23.6176 67.6832 23.5924 67.6203 23.5546C67.5448 23.5043 67.5196 23.4917 67.4944 23.4917C67.4692 23.4917 67.4566 23.5043 67.4441 23.5169C67.4441 23.5169 67.4189 23.5295 67.3937 23.5421C67.3308 23.5798 67.3308 23.5798 67.2552 23.4665C67.1923 23.3531 67.1293 23.3405 67.0412 23.3405C67.0161 23.3405 66.9783 23.3405 66.9279 23.3279C66.8902 23.3279 66.8524 23.3279 66.8272 23.3279C66.8146 23.3279 66.7643 23.3279 66.7391 23.3657L66.4244 23.4161C66.4244 23.4161 66.4621 23.3531 66.4873 23.3279C66.5125 23.3027 66.5125 23.2776 66.5125 23.2524C66.5125 23.1768 66.4118 23.1012 66.2733 23.0005C66.2481 22.9879 66.223 22.9627 66.2104 22.9501C66.1852 22.9375 66.16 22.9123 66.1348 22.8997C66.0845 22.8619 66.0341 22.8367 65.9964 22.7486C65.9712 22.6604 65.9082 22.6478 65.8831 22.6478C65.8201 22.6478 65.7572 22.6982 65.732 22.7108C65.7194 22.7108 65.6942 22.7234 65.6691 22.736C65.6691 22.6352 65.6313 22.5722 65.5935 22.4841C65.5683 22.4211 65.5306 22.3581 65.5054 22.2826C65.4299 22.0936 65.304 22.0559 65.2536 22.0307C65.1529 22.0307 65.1403 22.081 65.1026 22.144C65.1026 22.1818 65.0774 22.2196 65.0522 22.27C65.027 22.1944 64.9893 22.1188 64.9767 22.0684C64.9515 21.9929 64.8634 21.9929 64.8382 21.9929C64.9012 21.9425 64.9263 21.9047 64.9641 21.8543C64.9767 21.8291 64.9893 21.8166 65.0145 21.7914C65.0396 21.7536 65.0522 21.7158 65.0522 21.6906C65.0522 21.6276 64.9893 21.5898 64.9011 21.5395C64.8886 21.5395 64.8634 21.5143 64.8382 21.5017C64.7627 21.4513 64.6997 21.4387 64.662 21.4387C64.662 21.4135 64.6745 21.3631 64.6871 21.3379C64.6997 21.3002 64.7249 21.2498 64.7375 21.1994C64.7753 21.0609 64.8004 20.9223 64.6871 20.746C64.662 20.7082 64.6242 20.6704 64.5864 20.6704C64.5235 20.6704 64.4983 20.7334 64.4606 20.7964C64.4606 20.8216 64.4354 20.8341 64.4228 20.8593C64.4102 20.809 64.3976 20.746 64.4102 20.6956C64.4102 20.6578 64.4354 20.6326 64.4479 20.6074C64.4857 20.5445 64.5361 20.4815 64.4857 20.3429C64.4731 20.28 64.4354 20.2422 64.385 20.2422C64.3221 20.2422 64.2591 20.2926 64.1458 20.6326C64.1207 20.6074 64.0703 20.5822 64.0703 20.5822C64.0451 20.5571 64.0074 20.5445 63.9822 20.5445C63.9318 20.5445 63.8815 20.5697 63.8311 20.5948C63.8311 20.5193 63.8059 20.3933 63.743 20.217C63.7178 20.1162 63.6926 20.0785 63.6926 20.0659C63.6926 20.0659 63.6926 20.0281 63.6926 19.9525C63.6926 19.8769 63.6926 19.8266 63.7052 19.751C63.7052 19.6754 63.7304 19.5747 63.743 19.4235C63.7556 19.2094 63.6926 19.1716 63.5793 19.1464C63.5416 19.1464 63.5038 19.1338 63.466 19.096C63.4409 19.0709 63.4157 19.0457 63.3905 19.0205C63.3402 18.9575 63.2898 18.8945 63.2017 18.8945C63.0884 18.8945 63.0884 19.0205 63.0758 19.1212C63.0758 19.1464 63.0758 19.1716 63.0758 19.1968C63.0632 19.2976 63.0254 19.5495 63.0254 19.6502C63.0254 19.6754 63.0254 19.688 62.9625 19.7132C62.9247 19.7384 62.8618 19.7762 62.7988 19.8391C62.6478 19.9903 62.5597 20.1414 62.5597 20.2422C62.5597 20.2926 62.5722 20.3178 62.5848 20.3429C62.5848 20.3681 62.61 20.3807 62.61 20.4437C62.61 20.4941 62.5848 20.5571 62.5597 20.6452C62.5219 20.7586 62.4841 20.9097 62.4841 21.0609C62.4841 21.3128 62.4464 21.7158 62.4338 21.9299C62.4212 22.1314 62.3708 22.2322 62.2701 22.3959C62.1694 22.5722 62.1442 22.61 62.1316 22.7612H62.0309Z" fill="#77A2CC"/>
</g>
<path d="M133.799 49.2229H153.375V56.6413H133.799V49.2229Z" fill="#97CADB"/>
<g style="mix-blend-mode:multiply">
<path d="M133.799 49.2229H147.785V56.6413H133.799V49.2229Z" fill="#CCCCCC"/>
</g>
<path d="M127.731 49.0215H147.307V56.4399H127.731V49.0215Z" fill="#5F9653"/>
<g style="mix-blend-mode:multiply">
<path d="M127.731 49.0215H141.717V56.4399H127.731V49.0215Z" fill="#CCCCCC"/>
</g>
<path d="M121.576 49.0215H141.151V56.4399H121.576V49.0215Z" fill="#E6E6E6"/>
<g style="mix-blend-mode:multiply">
<path d="M121.576 49.0215H135.562V56.4399H121.576V49.0215Z" fill="#CCCCCC"/>
</g>
<path d="M115.508 49.0215H135.083V56.4399H115.508V49.0215Z" fill="#97CADB"/>
<g style="mix-blend-mode:multiply">
<path d="M115.508 49.0215H129.494V56.4399H115.508V49.0215Z" fill="#CCCCCC"/>
</g>
<path d="M108.433 49.0466H128.008V56.465H108.433V49.0466Z" fill="#77A2CC"/>
<g style="mix-blend-mode:multiply">
<path d="M108.433 49.0466H122.419V56.465H108.433V49.0466Z" fill="#CCCCCC"/>
</g>
<path d="M133.824 41.2505H153.4V48.6689H133.824V41.2505Z" fill="#97CADB"/>
<g style="mix-blend-mode:multiply">
<path d="M133.812 41.2505H147.798V48.6689H133.812V41.2505Z" fill="#CCCCCC"/>
</g>
<path d="M127.757 41.2505H147.332V48.6689H127.757V41.2505Z" fill="#E6E6E6"/>
<g style="mix-blend-mode:multiply">
<path d="M127.744 41.2505H141.73V48.6689H127.744V41.2505Z" fill="#CCCCCC"/>
</g>
<path d="M133.774 33.3787H153.35V40.7971H133.774V33.3787Z" fill="#97CADB"/>
<g style="mix-blend-mode:multiply">
<path d="M133.774 33.3787H147.76V40.7971H133.774V33.3787Z" fill="#CCCCCC"/>
</g>
<path d="M127.706 33.3787H147.282V40.7971H127.706V33.3787Z" fill="#001C48"/>
<g style="mix-blend-mode:multiply">
<path d="M127.706 33.3787H141.692V40.7971H127.706V33.3787Z" fill="#CCCCCC"/>
</g>
<path d="M121.601 41.2505H141.176V48.6689H121.601V41.2505Z" fill="#77A2CC"/>
<g style="mix-blend-mode:multiply">
<path d="M121.601 41.2505H135.587V48.6689H121.601V41.2505Z" fill="#CCCCCC"/>
</g>
<path d="M115.533 41.2505H135.108V48.6689H115.533V41.2505Z" fill="#97CADB"/>
<g style="mix-blend-mode:multiply">
<path d="M115.533 41.2505H129.519V48.6689H115.533V41.2505Z" fill="#CCCCCC"/>
</g>
<path d="M149.573 41.0364H186.03L194.451 44.6511V58.43H141.151V44.6511L149.573 41.0364ZM184.884 45.5957H186.218V43.8576H184.884V45.5957ZM174.121 45.5957H175.455V43.8576H174.121V45.5957ZM163.37 45.5957H164.704V43.8576H163.37V45.5957ZM152.619 45.5957H153.954V43.8576H152.619V45.5957Z" fill="#457084"/>
<g style="mix-blend-mode:multiply">
<path d="M142.359 56.5155H141.138V44.6385L149.573 41.0364L142.359 44.6385V56.5155Z" fill="#CCCCCC"/>
</g>
<path d="M182.001 49.0466H184.04L183.449 31.9553H182.568L182.001 49.0466Z" fill="#E6E6E6"/>
<path d="M181.913 31.4768H184.141V31.9554H181.913V31.4768Z" fill="#E6E6E6"/>
<path d="M183.789 31.8923L183.411 32.5976H182.58L182.278 31.8923H183.789Z" fill="#E6E6E6"/>
<g style="mix-blend-mode:multiply">
<path d="M182.769 49.0466H182.001L182.542 32.5095L182.303 31.9553H183.763L183.625 32.2072H182.505L182.744 32.5221L182.769 49.0466Z" fill="#CCCCCC"/>
</g>
<path d="M182.933 25.8972H183.159V31.4768H182.933V25.8972Z" fill="#E6E6E6"/>
<path d="M181.057 31.6784H184.922V29.9529H181.057V31.6784ZM184.72 31.4769H181.271V30.167H184.72V31.4769Z" fill="#E6E6DC"/>
<path d="M181.901 30.0662H182.102V31.4894H181.901V30.0662Z" fill="#E6E6DC"/>
<path d="M183.953 30.0662H184.154V31.7161H183.953V30.0662Z" fill="#E6E6DC"/>
<path d="M182.593 28.0886H183.549V29.6126H182.593V28.0886Z" fill="#E6E6E6"/>
<path d="M48.2588 13.9194H55.5099V20.4436H48.2588V13.9194Z" fill="#CCCCCC"/>
<path d="M71.8374 3.31445H72.2277V20.8466H71.8374V3.31445Z" fill="#E6E6DC"/>
<path d="M51.2432 18.4788H51.4438V21.5015H51.2432V18.4788Z" fill="white"/>
<path d="M54.7429 18.6677H54.9435V21.6905H54.7429V18.6677Z" fill="white"/>
<path d="M58.0537 18.4788H58.2543V21.5015H58.0537V18.4788Z" fill="white"/>
<path d="M61.3015 18.6677H61.5021V21.6905H61.3015V18.6677Z" fill="white"/>
<path d="M64.562 18.4788H64.7626V21.5015H64.562V18.4788Z" fill="white"/>
<path d="M67.8098 18.4788H68.0104V21.5015H67.8098V18.4788Z" fill="white"/>
<path d="M70.8059 18.4788H71.0065V21.5015H70.8059V18.4788Z" fill="white"/>
<path d="M74.3181 18.4788H74.5187V21.5015H74.3181V18.4788Z" fill="white"/>
<path d="M47.1763 20.9725H47.3777V18.5795H78.371V20.9725H78.5724V18.3779H47.1763V20.9725Z" fill="white"/>
<path d="M42.3676 20.5445H47.252L47.2897 18.3782H42.8963L42.355 20.5445H42.3676ZM47.0506 20.343H42.6193L43.06 18.5671H47.0883L47.0506 20.343Z" fill="#808080"/>
<path d="M36.5515 60.2439H47.1512L47.0379 25.8471L48.5988 20.4438H41.3478L36.5515 60.2439Z" fill="#B2B2B2"/>
<path d="M78.459 48.2912H82.5503V46.2256H78.459V48.2912ZM82.3866 48.1274H78.6226V46.3893H82.3866V48.1274Z" fill="#E6E6DC"/>
<path d="M80.8516 46.3013H81.0146V48.1653H80.8516V46.3013Z" fill="#E6E6DC"/>
<path d="M79.6682 46.3013H79.8312V48.1653H79.6682V46.3013Z" fill="#E6E6DC"/>
<path d="M78.5472 60.2436H47.0378V25.8469L48.2589 20.8593L78.3332 20.6704L78.5472 21.5017L77.3513 25.8469H78.5472V60.2436Z" fill="#F2F2F2"/>
<path d="M41.1716 48.3162H47.0631V46.2129H41.1716V48.3162ZM46.8617 48.1273H41.3604V46.427H46.8617V48.1273Z" fill="#E6E6DC"/>
<path d="M44.6343 46.3137H44.8349V48.1778H44.6343V46.3137Z" fill="#E6E6DC"/>
<path d="M42.9224 46.3137H43.123V48.1778H42.9224V46.3137Z" fill="#E6E6DC"/>
<path d="M43.0095 48.1274H82.5631V60.2564H43.0095V48.1274Z" fill="#F2F2F2"/>
<g style="mix-blend-mode:multiply">
<path d="M43.0095 60.2437H82.4624L69.6849 53.1654L43.0095 49.8403V60.2437Z" fill="#CCCCCC"/>
</g>
<path d="M42.4934 24.2473H83.0918V27.4464H42.4934V24.2473Z" fill="#F2F2F2"/>
<path d="M49.9961 28.366H50.5877V29.4365H49.9961V28.366Z" fill="#333333"/>
<path d="M55.1072 28.366H55.6988V29.4365H55.1072V28.366Z" fill="#333333"/>
<path d="M60.2307 28.366H60.8224V29.4365H60.2307V28.366Z" fill="#333333"/>
<path d="M65.3542 28.366H65.9459V29.4365H65.3542V28.366Z" fill="#333333"/>
<path d="M70.4653 28.366H71.057V29.4365H70.4653V28.366Z" fill="#333333"/>
<path d="M75.5889 28.366H76.1806V29.4365H75.5889V28.366Z" fill="#333333"/>
<path d="M50.0464 34.9028H50.6381V35.9734H50.0464V34.9028Z" fill="#333333"/>
<path d="M55.1699 34.9028H55.7616V35.9734H55.1699V34.9028Z" fill="#333333"/>
<path d="M60.281 34.9028H60.8727V35.9734H60.281V34.9028Z" fill="#333333"/>
<path d="M65.4045 34.9028H65.9962V35.9734H65.4045V34.9028Z" fill="#333333"/>
<path d="M70.5281 34.9028H71.1198V35.9734H70.5281V34.9028Z" fill="#333333"/>
<path d="M75.6392 34.9028H76.2308V35.9734H75.6392V34.9028Z" fill="#333333"/>
<path d="M50.2354 41.6411H50.8271V42.7117H50.2354V41.6411Z" fill="#333333"/>
<path d="M55.3591 41.6411H55.9508V42.7117H55.3591V41.6411Z" fill="#333333"/>
<path d="M60.47 41.6411H61.0617V42.7117H60.47V41.6411Z" fill="#333333"/>
<path d="M65.5935 41.6411H66.1851V42.7117H65.5935V41.6411Z" fill="#333333"/>
<path d="M70.717 41.6411H71.3087V42.7117H70.717V41.6411Z" fill="#333333"/>
<path d="M75.8408 41.6411H76.4324V42.7117H75.8408V41.6411Z" fill="#333333"/>
<path d="M50.3486 48.1526H50.9403V49.2231H50.3486V48.1526Z" fill="#333333"/>
<path d="M55.4724 48.1526H56.064V49.2231H55.4724V48.1526Z" fill="#333333"/>
<path d="M60.5959 48.1526H61.1876V49.2231H60.5959V48.1526Z" fill="#333333"/>
<path d="M65.7068 48.1526H66.2984V49.2231H65.7068V48.1526Z" fill="#333333"/>
<path d="M70.8303 48.1526H71.422V49.2231H70.8303V48.1526Z" fill="#333333"/>
<path d="M75.9541 48.1526H76.5457V49.2231H75.9541V48.1526Z" fill="#333333"/>
<path d="M50.3486 54.2988H50.9403V55.3694H50.3486V54.2988Z" fill="#333333"/>
<path d="M55.4724 54.2988H56.064V55.3694H55.4724V54.2988Z" fill="#333333"/>
<path d="M60.5959 54.2988H61.1876V55.3694H60.5959V54.2988Z" fill="#333333"/>
<path d="M65.7068 54.2988H66.2984V55.3694H65.7068V54.2988Z" fill="#333333"/>
<path d="M70.8303 54.2988H71.422V55.3694H70.8303V54.2988Z" fill="#333333"/>
<path d="M75.9541 54.2988H76.5457V55.3694H75.9541V54.2988Z" fill="#333333"/>
<path d="M50.9403 25.847H48.0071L49.1905 21.5017H52.1236L50.9403 25.847Z" fill="#77A2CC"/>
<path d="M54.2008 25.847H51.2676L52.4384 21.5017H55.3715L54.2008 25.847Z" fill="#77A2CC"/>
<path d="M57.4486 25.847H54.5154L55.6988 21.5017H58.6319L57.4486 25.847Z" fill="#77A2CC"/>
<path d="M60.6965 25.847H57.7634L58.9467 21.5017H61.8799L60.6965 25.847Z" fill="#77A2CC"/>
<path d="M63.9569 25.847H61.0112L62.1945 21.5017H65.1277L63.9569 25.847Z" fill="#77A2CC"/>
<path d="M67.2048 25.847H64.2717L65.4424 21.5017H68.3882L67.2048 25.847Z" fill="#77A2CC"/>
<path d="M70.4526 25.847H67.5195L68.7028 21.5017H71.636L70.4526 25.847Z" fill="#77A2CC"/>
<path d="M73.7004 25.847H70.7673L71.9506 21.5017H74.8838L73.7004 25.847Z" fill="#77A2CC"/>
<path d="M76.9609 25.847H74.0278L75.1985 21.5017H78.1317L76.9609 25.847Z" fill="#77A2CC"/>
<g style="mix-blend-mode:multiply">
<path d="M47.7805 22.7864L48.1078 21.5017H78.5472L78.1821 22.7864H47.7805Z" fill="#CCCCCC"/>
</g>
<path d="M47.1384 20.4438H79.743V21.5018H47.1384V20.4438Z" fill="#457084"/>
<path d="M40.6177 48.1272H43.0095V60.2561H40.6177V48.1272Z" fill="#999999"/>
<path d="M37.5964 24.2473H42.4934V27.4464H37.5964V24.2473Z" fill="#B2B2B2"/>
<path d="M26.3169 52.3213H40.6302V60.2435H26.3169V52.3213Z" fill="#B2B2B2"/>
<path d="M38.9685 47.3843V48.5052C38.9685 49.9662 36.8662 51.1501 35.5192 51.1501H28.7465C27.3995 51.1501 26.3169 49.9662 26.3169 48.5052V47.3843H38.9685Z" fill="#97CADB"/>
<path d="M28.9983 49.7269V48.6941C28.9983 47.3465 29.7158 46.2507 30.6096 46.2507H35.7458C36.6396 46.2507 37.3571 47.3465 37.3571 48.6941V49.7269H28.9983Z" fill="#4785A2"/>
<path d="M38.1502 47.3843V48.5052C38.1502 49.9662 36.9669 51.1501 35.5066 51.1501H27.0596C25.5994 51.1501 24.416 49.9662 24.416 48.5052V47.3843H38.1377H38.1502Z" fill="#4785A2"/>
<path d="M45.187 56.7297H47.1005V60.2563H45.187V56.7297Z" fill="#E6E6E6"/>
<path d="M51.834 56.7046H53.7474V60.2312H51.834V56.7046Z" fill="#E6E6E6"/>
<path d="M58.468 56.6792H60.3815V60.2058H58.468V56.6792Z" fill="#E6E6E6"/>
<path d="M65.115 56.6541H67.0284V60.1806H65.115V56.6541Z" fill="#E6E6E6"/>
<path d="M71.749 56.6289H73.6625V60.1555H71.749V56.6289Z" fill="#E6E6E6"/>
<path d="M78.3833 56.6038H80.2968V60.1303H78.3833V56.6038Z" fill="#E6E6E6"/>
<path d="M85.03 56.5786H86.9435V60.1052H85.03V56.5786Z" fill="#E6E6E6"/>
<path d="M91.6643 56.5659H93.5778V60.0925H91.6643V56.5659Z" fill="#E6E6E6"/>
<path d="M98.311 56.5408H100.224V60.0673H98.311V56.5408Z" fill="#E6E6E6"/>
<path d="M104.946 56.5156H106.859V60.0422H104.946V56.5156Z" fill="#E6E6E6"/>
<path d="M111.58 56.4905H113.494V60.0171H111.58V56.4905Z" fill="#E6E6E6"/>
<path d="M118.227 56.4651H120.14V59.9917H118.227V56.4651Z" fill="#E6E6E6"/>
<path d="M124.861 56.4399H126.775V59.9665H124.861V56.4399Z" fill="#E6E6E6"/>
<path d="M131.495 56.4148H133.409V59.9414H131.495V56.4148Z" fill="#E6E6E6"/>
<path d="M38.9558 58.0522H136.103V58.3167H38.9558V58.0522Z" fill="#F2F2F2"/>
<path d="M38.9558 59.0344H136.103V59.2989H38.9558V59.0344Z" fill="#F2F2F2"/>
<path d="M14.1814 52.3213H27.9282V55.5708H14.1814V52.3213Z" fill="#B2B2B2"/>
<path d="M19.7329 55.3315H21.0547V59.9539H19.7329V55.3315Z" fill="#B2B2B2"/>
<path d="M27.4497 56.7297H39.2704V64.2489H27.4497V56.7297Z" fill="#001C48"/>
<g style="mix-blend-mode:multiply">
<path d="M27.4497 56.7297H39.2704V64.2489H27.4497V56.7297Z" fill="#CCCCCC"/>
</g>
<path d="M11.0341 59.9414H133.396L151.083 48.4297H200.368C200.368 48.4297 188.9 66.2893 194.967 69.5388H201.236C203.59 69.5388 205.491 71.4406 205.491 73.7958C205.491 76.1511 203.59 78.0529 201.236 78.0529H10.8452C6.41403 77.864 2.52414 74.7908 0.157471 70.1559V59.9414H11.0341Z" fill="#001C48"/>
<path d="M178.023 68.0525C178.023 68.0525 187.792 69.7654 190.624 69.7654C198.014 61.1253 211.383 58.0521 212.957 48.417H178.01V68.0399L178.023 68.0525Z" fill="#001C48"/>
<path d="M0.157471 70.1559V67.259H193.342C193.57 68.2666 194.086 69.0601 194.967 69.5387H201.236C203.59 69.5387 205.491 71.4405 205.491 73.7958C205.491 76.151 203.59 78.0529 201.236 78.0529H10.8452C6.41403 77.8639 2.52414 74.7908 0.157471 70.1559Z" fill="#457084"/>
<path d="M161.746 48.4297L164.641 46.2507H213.334L212.969 48.4297H173.63L173.239 47.3339H168.859L169.236 48.4297H161.746Z" fill="#E6E6DC"/>
<g style="mix-blend-mode:multiply">
<path d="M11.0342 59.9414H133.396L151.083 48.4297H161.746L164.629 46.2507H202.256C202.256 46.2507 185.853 67.0701 191.757 70.7479C193.696 71.957 200.909 70.7479 200.909 70.7479C199.424 71.957 200.242 77.0579 205.479 73.7958C205.479 76.1511 203.578 78.0529 201.224 78.0529H10.8328C6.40157 77.864 2.51169 74.7908 0.14502 70.1559V59.9414H11.0216H11.0342ZM173.693 62.0322H178.023L175.128 54.0722H170.797L173.693 62.0322Z" fill="#CCCCCC"/>
</g>
<path d="M61.3511 10.1663H63.3275V20.4437H61.3511V10.1663Z" fill="#E6E6DC"/>
<path d="M55.8372 8.44067H68.8413V9.1334H55.8372V8.44067Z" fill="#E6E6DC"/>
<path d="M56.2778 8.78076L61.5525 10.5063H63.3275L68.5266 8.78076H56.2778Z" fill="#E6E6DC"/>
<path d="M56.9954 4.80078H60.6839V5.68243H56.9954V4.80078Z" fill="#E6E6DC"/>
<path d="M58.8334 5.14087L58.1787 8.60447H59.4502L58.8334 5.14087Z" fill="#E6E6DC"/>
<path d="M65.0647 8.08813H66.9153V8.57934H65.0647V8.08813Z" fill="#E6E6DC"/>
<path d="M66.6005 8.73049C66.6005 9.08315 66.3109 9.37283 65.9585 9.37283C65.606 9.37283 65.3164 9.08315 65.3164 8.73049V7.65992C65.3164 7.30726 65.606 7.01758 65.9585 7.01758C66.3109 7.01758 66.6005 7.30726 66.6005 7.65992V8.73049Z" fill="#E6E6DC"/>
<path d="M61.8038 0.481201L62.0036 0.500892L61.1872 8.78565L60.9875 8.76596L61.8038 0.481201Z" fill="#E6E6DC"/>
<path d="M62.0092 0.467773L63.3077 8.75397L63.1094 8.78506L61.811 0.498863L62.0092 0.467773Z" fill="#E6E6DC"/>
<path d="M61.6531 2.89893H63.3148V3.31455H61.6531V2.89893Z" fill="#E6E6DC"/>
<path d="M61.6531 1.6521H63.3148V2.06773H61.6531V1.6521Z" fill="#E6E6DC"/>
<path d="M61.5022 4.22144H63.3149V4.63707H61.5022V4.22144Z" fill="#E6E6DC"/>
<path d="M61.4014 5.30444H63.3148V5.72008H61.4014V5.30444Z" fill="#E6E6DC"/>
<path d="M61.2629 6.50098H63.3148V6.91661H61.2629V6.50098Z" fill="#E6E6DC"/>
<path d="M62.3582 0.858643H63.5919V1.51357H62.3582V0.858643Z" fill="#E6E6DC"/>
<g style="mix-blend-mode:multiply">
<path d="M61.3511 20.4435H62.2953V10.166L61.3511 10.5061V20.4435Z" fill="#E6E6DC"/>
</g>
<g style="mix-blend-mode:multiply">
<path d="M62.2952 10.1661L57.9395 9.1333H57.3352L61.351 10.4558L62.2952 10.1661Z" fill="#E6E6DC"/>
</g>
<path d="M62.333 49.2231H81.9083V56.6415H62.333V49.2231Z" fill="#97CADB"/>
<g style="mix-blend-mode:multiply">
<path d="M62.333 49.2231H76.319V56.6415H62.333V49.2231Z" fill="#CCCCCC"/>
</g>
<path d="M62.333 41.2505H81.9083V48.6689H62.333V41.2505Z" fill="#97CADB"/>
<g style="mix-blend-mode:multiply">
<path d="M62.333 41.2505H76.319V48.6689H62.333V41.2505Z" fill="#CCCCCC"/>
</g>
<path d="M82.4749 49.1726H102.051V56.591H82.4749V49.1726Z" fill="#97CADB"/>
<g style="mix-blend-mode:multiply">
<path d="M82.4622 49.1726H96.4482V56.591H82.4622V49.1726Z" fill="#CCCCCC"/>
</g>
<path d="M76.4072 49.2231H95.9825V56.6415H76.4072V49.2231Z" fill="#97CADB"/>
<g style="mix-blend-mode:multiply">
<path d="M76.3945 49.2231H90.3805V56.6415H76.3945V49.2231Z" fill="#CCCCCC"/>
</g>
<path d="M82.4749 41.3889H102.051V48.8073H82.4749V41.3889Z" fill="#97CADB"/>
<g style="mix-blend-mode:multiply">
<path d="M82.4622 41.3889H96.4482V48.8073H82.4622V41.3889Z" fill="#CCCCCC"/>
</g>
<path d="M56.2651 49.2231H75.8405V56.6415H56.2651V49.2231Z" fill="#77A2CC"/>
<g style="mix-blend-mode:multiply">
<path d="M56.2651 49.2231H70.2511V56.6415H56.2651V49.2231Z" fill="#CCCCCC"/>
</g>
<path d="M50.1094 49.2231H69.6848V56.6415H50.1094V49.2231Z" fill="#001C48"/>
<g style="mix-blend-mode:multiply">
<path d="M50.1094 49.2231H64.0954V56.6415H50.1094V49.2231Z" fill="#CCCCCC"/>
</g>
<path d="M44.0417 49.2231H63.6171V56.6415H44.0417V49.2231Z" fill="#97CADB"/>
<g style="mix-blend-mode:multiply">
<path d="M44.0417 49.2231H58.0277V56.6415H44.0417V49.2231Z" fill="#CCCCCC"/>
</g>
<path d="M1.13939 71.856C2.14649 71.2766 3.01509 70.4957 3.70747 69.5637C5.26846 71.6545 7.74843 73.0147 10.5557 73.0147C13.363 73.0147 15.8555 71.6545 17.4039 69.5637C18.9649 71.6545 21.4449 73.0147 24.2521 73.0147C27.0594 73.0147 29.552 71.6545 31.1004 69.5637C32.6614 71.6545 35.1413 73.0147 37.9486 73.0147C40.7559 73.0147 43.2484 71.6545 44.7968 69.5637C46.3578 71.6545 48.8378 73.0147 51.645 73.0147C54.4523 73.0147 56.9449 71.6545 58.4933 69.5637C60.0543 71.6545 62.5342 73.0147 65.3415 73.0147C68.1488 73.0147 70.6413 71.6545 72.1897 69.5637C73.7507 71.6545 76.2307 73.0147 79.038 73.0147C81.8452 73.0147 84.3378 71.6545 85.8862 69.5637C87.4472 71.6545 89.9271 73.0147 92.7344 73.0147C95.5417 73.0147 98.0342 71.6545 99.5826 69.5637C101.144 71.6545 103.624 73.0147 106.431 73.0147C109.239 73.0147 111.731 71.6545 113.28 69.5637C114.841 71.6545 117.321 73.0147 120.128 73.0147C122.935 73.0147 125.415 71.6671 126.963 69.5889C126.963 69.5889 126.963 69.5889 126.963 69.5763C128.524 71.6671 131.004 73.0273 133.812 73.0273C136.619 73.0273 139.112 71.6671 140.66 69.5763C142.221 71.6671 144.701 73.0273 147.508 73.0273C150.315 73.0273 152.808 71.6671 154.356 69.5763C155.917 71.6671 158.397 73.0273 161.205 73.0273C164.012 73.0273 166.504 71.6671 168.053 69.5763C169.614 71.6671 172.094 73.0273 174.901 73.0273C177.708 73.0273 180.201 71.6671 181.749 69.5763C183.31 71.6671 185.79 73.0273 188.597 73.0273C191.405 73.0273 193.897 71.6671 195.446 69.5763C197.007 71.6671 199.487 73.0273 202.294 73.0273C203.314 73.0273 204.296 72.851 205.202 72.5109C205.328 72.9266 205.403 73.3548 205.403 73.8082C205.403 76.1635 203.502 78.0653 201.148 78.0653H179.622L170.835 77.5363L3.55641 74.8788C2.63744 74.0223 1.79399 73.0147 1.05127 71.8686L1.13939 71.856Z" fill="#34B67A"/>
<path d="M205.491 80.6094H8.30246L5.0546 78.1157C1.20247 77.9645 3.53136 75.5337 1.1521 71.8812C2.17178 71.2892 3.05299 70.5083 3.75796 69.5637C5.31895 71.6545 7.79892 73.0147 10.6061 73.0147C13.4134 73.0147 15.906 71.6545 17.4544 69.5637C19.0154 71.6545 21.4953 73.0147 24.3026 73.0147C27.1099 73.0147 29.6024 71.6545 31.1508 69.5637C32.7118 71.6545 35.1918 73.0147 37.9991 73.0147C40.8063 73.0147 43.2989 71.6545 44.8473 69.5637C46.4083 71.6545 48.8882 73.0147 51.6955 73.0147C54.5028 73.0147 56.9953 71.6545 58.5437 69.5637C60.1047 71.6545 62.5847 73.0147 65.392 73.0147C68.1992 73.0147 70.6918 71.6545 72.2402 69.5637C73.8012 71.6545 76.2811 73.0147 79.0884 73.0147C81.8957 73.0147 84.3882 71.6545 85.9366 69.5637C87.4976 71.6545 89.9776 73.0147 92.7849 73.0147C95.5921 73.0147 98.0847 71.6545 99.6331 69.5637C101.194 71.6545 103.674 73.0147 106.482 73.0147C109.289 73.0147 111.782 71.6545 113.33 69.5637C114.891 71.6545 117.371 73.0147 120.178 73.0147C122.985 73.0147 125.465 71.6671 127.014 69.5889C127.014 69.5889 127.014 69.5889 127.014 69.5763C128.575 71.6671 131.055 73.0273 133.862 73.0273C136.669 73.0273 139.162 71.6671 140.71 69.5763C142.271 71.6671 144.751 73.0273 147.558 73.0273C150.366 73.0273 152.858 71.6671 154.407 69.5763C155.968 71.6671 158.448 73.0273 161.255 73.0273C164.062 73.0273 166.555 71.6671 168.103 69.5763C169.664 71.6671 172.144 73.0273 174.951 73.0273C177.759 73.0273 180.251 71.6671 181.8 69.5763C183.361 71.6671 185.841 73.0273 188.648 73.0273C191.455 73.0273 193.948 71.6671 195.496 69.5763C197.057 71.6671 199.562 72.6747 202.344 73.0273C203.628 73.1911 204.875 72.5613 205.202 72.5109L205.328 72.9769C205.378 73.2414 205.403 73.5185 205.403 73.7956C205.403 76.1509 207.757 80.6094 205.403 80.6094H205.491Z" fill="#77A2CC"/>
</svg>
