<svg width="81" height="80" viewBox="0 0 81 80" fill="none" xmlns="http://www.w3.org/2000/svg">
<g clip-path="url(#clip0_568_520)">
<path d="M1.97632 18.8594C1.42944 19 0.616942 19.7031 0.398192 20.25C0.210692 20.7031 0.179442 23.0781 0.210692 35.2031L0.257567 49.6094L0.616942 50.125C1.11694 50.8125 1.77319 51.125 2.92944 51.2188L3.89819 51.2969L3.96069 52.9531C4.00757 54.3906 4.05444 54.6719 4.36694 55.125C4.96069 55.9531 5.52319 56.1563 7.41382 56.2188C9.07007 56.2813 9.08569 56.2813 9.19507 56.7031C9.53882 58.1563 10.9138 59.8125 12.3826 60.5313C14.7888 61.7031 17.4294 61.2813 19.4138 59.4219L20.1638 58.7188L20.7576 59.3438C21.5388 60.1563 22.5388 60.7188 23.7732 61.0313C26.3669 61.7031 29.3982 60.25 30.6482 57.7656C30.8982 57.25 31.1169 56.7031 31.1169 56.5313C31.1169 56.2656 31.6482 56.25 45.7888 56.25H60.4607L60.5701 56.75C60.867 58.0938 62.1638 59.6875 63.5701 60.4375C65.9763 61.7188 68.8826 61.2813 70.8045 59.375C71.742 58.4219 72.3045 57.3281 72.5388 55.9688L72.7107 55.0313L75.5388 54.9688C78.6638 54.9219 79.0545 54.8125 79.7732 53.8594C80.0857 53.4219 80.1013 53.2344 80.1482 47.625C80.1951 40.7344 80.242 40.9375 78.6013 39.1719L77.5076 37.9688L75.9607 33.3438L74.4138 28.7031L74.7888 28.25C75.0076 28 75.1795 27.6875 75.1795 27.5781C75.1795 27.1094 74.8045 26.5625 74.3513 26.4063C74.0545 26.3125 71.7888 26.25 68.2888 26.25H62.6795V23.5469C62.6795 21.0625 62.6482 20.7969 62.3357 20.1563C62.0701 19.6406 61.7888 19.3594 61.2732 19.0938L60.5857 18.75L31.4294 18.7656C15.3982 18.7813 2.14819 18.8281 1.97632 18.8594ZM60.2576 35V48.8281L58.6482 48.9063C56.8982 48.9844 56.5857 49.1563 56.5857 49.9688C56.5857 50.9844 57.2107 51.25 59.7107 51.25H61.5388L61.0388 52.2344C60.7732 52.7656 60.5076 53.3594 60.4607 53.5625L60.367 53.9063L45.8044 53.875L31.2419 53.8281L30.9607 53.0156C30.8044 52.5625 30.5232 51.9844 30.3357 51.7188L30.0076 51.25L41.5701 51.2188L53.1326 51.1719L53.4763 50.8281C53.8982 50.4063 53.9295 49.6563 53.5388 49.2188C53.2576 48.9063 53.0701 48.9063 27.9294 48.875L2.60132 48.8281L2.55444 34.9531L2.52319 21.0938L31.3826 21.125L60.2576 21.1719V35ZM72.2732 29.8125C72.492 30.4688 72.6795 31.0625 72.6795 31.1406C72.6795 31.2031 71.3045 31.25 69.6326 31.25C66.2732 31.25 65.5857 31.3906 65.4138 32.0625C65.367 32.2656 65.3357 34.0625 65.367 36.0469C65.4138 39.4375 65.4295 39.6875 65.742 40.1094C65.9295 40.3438 66.3045 40.6875 66.6013 40.8594C67.1013 41.1563 67.4607 41.1719 72.242 41.2188C78.3513 41.2813 77.8357 41.0781 77.8357 43.5469V45.1563H76.9451C75.9295 45.1563 75.3357 45.5469 75.3357 46.2344C75.3513 47.0313 76.0545 47.5 77.2263 47.5H77.8357V50.0781V52.6563H75.0232H72.2263L71.9607 52.1563C71.4763 51.2188 70.0701 49.9063 69.0388 49.4375C68.117 49 67.9607 48.9844 65.3826 48.9375L62.6795 48.875V38.7344V28.5938H67.2732H71.867L72.2732 29.8125ZM74.3513 36.0156C74.7888 37.2969 75.1638 38.4531 75.1638 38.5469C75.1795 38.7031 74.3357 38.75 71.4295 38.75H67.6795V36.1719V33.5938L70.617 33.625L73.5388 33.6719L74.3513 36.0156ZM9.80444 51.9063C9.60132 52.2813 9.33569 52.875 9.22632 53.2344L9.03882 53.9063H7.64819H6.27319V52.5781V51.25H8.22632H10.1951L9.80444 51.9063ZM16.6638 51.5469C18.6169 52.4375 19.4607 54.7031 18.5544 56.6406C17.9138 58.0313 16.6951 58.7969 15.1013 58.7969C12.2888 58.8125 10.4451 55.8125 11.7263 53.2969C12.1013 52.5781 13.1794 51.6094 13.8513 51.4219C14.6638 51.1719 15.9919 51.2344 16.6638 51.5469ZM27.1482 51.8125C27.6169 52.0938 28.0857 52.5625 28.3826 53.0469C28.8044 53.7344 28.8513 53.9375 28.8513 55.0625C28.8513 56.1563 28.7888 56.4063 28.4451 56.9531C27.5857 58.25 26.6013 58.7969 25.1013 58.7969C23.0076 58.8125 21.3669 57.1719 21.3826 55.0781C21.3826 53.5938 21.9294 52.5781 23.1638 51.7969C23.8982 51.3125 24.1482 51.2656 25.3513 51.2969C26.1951 51.3281 26.5232 51.4219 27.1482 51.8125ZM67.8982 51.4688C68.617 51.7656 69.5232 52.6094 69.8826 53.3125C70.8201 55.1406 70.117 57.3594 68.2888 58.3594C65.6326 59.7969 62.4763 57.7656 62.7107 54.7656C62.7576 54.2344 62.9138 53.5938 63.0388 53.3281C63.3982 52.6406 64.2107 51.875 64.9451 51.5469C65.6951 51.2031 67.1638 51.1563 67.8982 51.4688Z" fill="#97CADB"/>
<path d="M5.50757 44.3125C5.13257 44.7969 5.10132 44.9844 5.36695 45.5469C5.47632 45.7969 5.74195 46 6.10132 46.1094C6.47632 46.2187 14.7888 46.25 31.7732 46.2187L56.8826 46.1719L57.2263 45.8281C57.6482 45.4062 57.6795 44.6562 57.2888 44.2187C57.0076 43.9062 56.867 43.9062 31.4138 43.9062H5.82007L5.50757 44.3125Z" fill="#97CADB"/>
<path d="M14.3513 54.1719C13.6326 54.9688 14.1326 56.1406 15.1795 56.1406C16.1482 56.1406 16.6326 54.9688 15.9607 54.25C15.5545 53.8281 14.7107 53.7969 14.3513 54.1719Z" fill="#97CADB"/>
<path d="M24.3826 54.1875C23.617 54.8125 24.1482 56.1406 25.1638 56.1406C25.8201 56.1406 26.2732 55.7031 26.2732 55.0469C26.2732 54.0469 25.1795 53.5469 24.3826 54.1875Z" fill="#97CADB"/>
<path d="M65.6794 54.2656C65.1169 54.8593 65.2419 55.6406 65.9607 56.0156C66.5232 56.3125 67.2576 56.0781 67.5076 55.5312C67.7576 54.9843 67.7263 54.7968 67.3513 54.3125C66.9294 53.7812 66.1482 53.75 65.6794 54.2656Z" fill="#97CADB"/>
</g>
<defs>
<clipPath id="clip0_568_520">
<rect width="80" height="80" fill="white" transform="translate(0.179443)"/>
</clipPath>
</defs>
</svg>
