<svg width="260" height="72" viewBox="0 0 260 72" fill="none" xmlns="http://www.w3.org/2000/svg">
<g clip-path="url(#clip0_581_794)">
<g style="mix-blend-mode:screen">
<g style="mix-blend-mode:screen">
<path d="M60.2535 12.8657L57.8166 14.0187L58.6704 14.8414L61.1073 13.6884L60.2535 12.8657Z" fill="#4D4D4D"/>
</g>
<g style="mix-blend-mode:screen">
<path d="M55.8699 15.1853L54.3854 16.5275L55.7474 17.1835L57.0635 15.9927L57.7674 15.6698L56.8034 14.7615L55.8699 15.1853Z" fill="#4D4D4D"/>
</g>
<g style="mix-blend-mode:screen">
<path d="M53.4113 17.1509L51.6573 18.7738L52.8591 19.366L54.6131 17.7431L53.4113 17.1509Z" fill="#4D4D4D"/>
</g>
<g style="mix-blend-mode:screen">
<path d="M47.9812 22.1609L47.9095 22.2273L49.1115 22.8193L49.1832 22.7529L47.9812 22.1609Z" fill="#4D4D4D"/>
</g>
<g style="mix-blend-mode:screen">
<path d="M50.7177 19.6738L48.9633 21.2966L50.1649 21.8889L51.9194 20.2661L50.7177 19.6738Z" fill="#4D4D4D"/>
</g>
<g style="mix-blend-mode:screen">
<path d="M79.6975 12.6982L78.4089 13.2004L79.8962 14.9405L81.1848 14.4384L79.6975 12.6982Z" fill="#4D4D4D"/>
</g>
<g style="mix-blend-mode:screen">
<path d="M82.0034 15.4023L80.7147 15.9043L82.2016 17.6446L83.4903 17.1427L82.0034 15.4023Z" fill="#4D4D4D"/>
</g>
<g style="mix-blend-mode:screen">
<path d="M84.2843 18.0435L82.9957 18.5457L84.1518 19.8982L85.4404 19.3961L84.2843 18.0435Z" fill="#4D4D4D"/>
</g>
<g style="mix-blend-mode:screen">
<path d="M220.296 1.73486L219.135 2.62279L220.996 4.83863L222.157 3.9507L220.296 1.73486Z" fill="#4D4D4D"/>
</g>
<g style="mix-blend-mode:screen">
<path d="M217.44 -1.63672L216.279 -0.748789L218.14 1.46705L219.301 0.579121L217.44 -1.63672Z" fill="#4D4D4D"/>
</g>
</g>
<g style="mix-blend-mode:multiply">
<path d="M238.253 64.7693H31.8808V66.0342H238.253V64.7693Z" fill="#CCCCCC"/>
</g>
<path d="M35.2487 47.6279H33.6932V58.7154H35.2487V47.6279Z" fill="#1A1A1A"/>
<path d="M35.2486 56.9473H31.8808V59.7224H35.2486V56.9473Z" fill="#1A1A1A"/>
<path d="M191.779 47.6279H147.281V51.0871H191.779V47.6279Z" fill="#97CADB"/>
<path d="M44.7571 55.7726H33.6932L35.0593 48.3379H46.1232L44.7571 55.7726Z" fill="#1A1A1A"/>
<path d="M91.8529 55.5403H47.4081L33.6932 47.628L97.3577 47.3699L91.8529 55.5403Z" fill="#008ABE"/>
<path d="M47.8408 48.7122H39.4415V64.9369H47.8408V48.7122Z" fill="#1A1A1A"/>
<path d="M36.1684 56.831C36.1684 61.3099 37.6291 64.937 39.4415 64.937C41.254 64.937 42.7147 61.3099 42.7147 56.831C42.7147 52.3521 41.2404 48.7251 39.4415 48.7251C37.6427 48.7251 36.1684 52.3521 36.1684 56.831Z" fill="#223946"/>
<path d="M37.805 56.8311C37.805 59.077 38.5354 60.884 39.4416 60.884C40.3478 60.884 41.0781 59.0641 41.0781 56.8311C41.0781 54.5981 40.3478 52.7781 39.4416 52.7781C38.5354 52.7781 37.805 54.5981 37.805 56.8311Z" fill="#77A2CC"/>
<path d="M60.1356 48.7122H47.0294V64.9369H60.1356V48.7122Z" fill="#1A1A1A"/>
<path d="M43.7426 56.831C43.7426 61.3099 45.2034 64.937 47.0158 64.937C48.8282 64.937 50.289 61.3099 50.289 56.831C50.289 52.3521 48.8147 48.7251 47.0158 48.7251C45.2169 48.7251 43.7426 52.3521 43.7426 56.831Z" fill="#223946"/>
<path d="M45.3927 56.8311C45.3927 59.077 46.1231 60.884 47.0293 60.884C47.9355 60.884 48.6659 59.0641 48.6659 56.8311C48.6659 54.5981 47.9355 52.7781 47.0293 52.7781C46.1231 52.7781 45.3927 54.5981 45.3927 56.8311Z" fill="#77A2CC"/>
<path d="M91.6905 48.7769H70.9966V54.8305H59.9327V57.3733H70.9966V65.0016H91.6905C93.503 65.0016 94.9637 61.3746 94.9637 56.8957C94.9637 52.4168 93.4894 48.7898 91.6905 48.7898V48.7769Z" fill="#1A1A1A"/>
<path d="M151.676 50.2869H100.712V52.4424H151.676V50.2869Z" fill="#1A1A1A"/>
<path d="M150.905 54.3914H100.712V56.547H150.905V54.3914Z" fill="#1A1A1A"/>
<path d="M170.314 45.395H41.4974V47.7442H170.314V45.395Z" fill="#008ABE"/>
<path d="M134.837 45.395H28.1748V47.7442H134.837V45.395Z" fill="#008ABE"/>
<g style="mix-blend-mode:multiply">
<path d="M134.837 45.395H28.1748V47.7442H134.837V45.395Z" fill="#457084"/>
</g>
<path d="M76.3797 47.6279H75.6087V56.5211H76.3797V47.6279Z" fill="#008ABE"/>
<path d="M111.059 47.6279H110.288V56.0177H111.059V47.6279Z" fill="#008ABE"/>
<path d="M76.3797 47.6279H75.6087V50.0932H76.3797V47.6279Z" fill="#01384C"/>
<path d="M111.059 47.6279H110.288V50.0932H111.059V47.6279Z" fill="#01384C"/>
<path d="M87.1189 55.566H98.1827L96.8167 48.1313H85.7528L87.1189 55.566Z" fill="#025574"/>
<path d="M51.3304 55.566H62.3943L61.0147 48.1313H49.9509L51.3304 55.566Z" fill="#457084"/>
<g style="mix-blend-mode:multiply">
<path d="M51.3304 55.566H62.3943L61.0147 48.1313H49.9509L51.3304 55.566Z" fill="#CCCCCC"/>
</g>
<path d="M118.823 50.2869H68.6296V52.4424H118.823V50.2869Z" fill="#457084"/>
<path d="M118.823 54.3914H68.6296V56.547H118.823V54.3914Z" fill="#457084"/>
<path d="M159.291 59.3351H148.227L149.607 51.9133H160.671L159.291 59.3351Z" fill="#1A1A1A"/>
<path d="M161.685 48.7769H153.286V65.0016H161.685V48.7769Z" fill="#1A1A1A"/>
<path d="M150.013 56.8957C150.013 61.3746 151.473 65.0146 153.286 65.0146C155.098 65.0146 156.559 61.3875 156.559 56.8957C156.559 52.4039 155.085 48.7898 153.286 48.7898C151.487 48.7898 150.013 52.4168 150.013 56.8957Z" fill="#223946"/>
<path d="M151.649 56.8958C151.649 59.1417 152.38 60.9487 153.286 60.9487C154.192 60.9487 154.922 59.1288 154.922 56.8958C154.922 54.6628 154.192 52.8428 153.286 52.8428C152.38 52.8428 151.649 54.6628 151.649 56.8958Z" fill="#77A2CC"/>
<path d="M173.98 48.7769H160.874V65.0016H173.98V48.7769Z" fill="#1A1A1A"/>
<path d="M157.587 56.8957C157.587 61.3746 159.048 65.0146 160.86 65.0146C162.673 65.0146 164.133 61.3875 164.133 56.8957C164.133 52.4039 162.673 48.7898 160.86 48.7898C159.048 48.7898 157.587 52.4168 157.587 56.8957Z" fill="#223946"/>
<path d="M159.237 56.8958C159.237 59.1417 159.967 60.9487 160.874 60.9487C161.78 60.9487 162.51 59.1288 162.51 56.8958C162.51 54.6628 161.78 52.8428 160.874 52.8428C159.967 52.8428 159.237 54.6628 159.237 56.8958Z" fill="#77A2CC"/>
<path d="M166.676 59.3351H177.74L176.374 51.9133H165.31L166.676 59.3351Z" fill="#008ABE"/>
<path d="M209.701 48.6607V46.944C210.052 46.944 210.323 46.8408 210.553 46.5955C211.472 45.6533 211.513 43.188 211.459 42.4006V42.349L211.256 13.2425C211.229 12.7908 211.175 10.8159 212.162 9.82197C212.541 9.43477 213.041 9.22827 213.596 9.22827H215.233V10.945H213.596C213.596 10.945 213.528 10.945 213.474 10.9966C213.136 11.3322 213.014 12.4681 213.055 13.1651V13.2167L213.258 42.3102C213.298 42.8136 213.461 46.1438 211.865 47.7701C211.283 48.3639 210.539 48.6737 209.687 48.6737L209.701 48.6607Z" fill="#E6E6E6"/>
<g style="mix-blend-mode:multiply">
<path d="M210.553 46.5955C211.472 45.6533 211.513 43.188 211.459 42.4006V42.349L211.256 13.2425C211.229 12.7908 211.175 10.8159 212.162 9.82197C212.541 9.43477 213.041 9.22827 213.596 9.22827H213.718C213.718 9.22827 213.637 9.29277 213.596 9.33147C212.609 10.3254 212.663 12.3003 212.69 12.752L212.893 41.8585V41.9101C212.947 42.6975 212.906 45.1628 211.986 46.105C211.743 46.3503 211.486 46.4536 211.134 46.4536V48.1703C211.215 48.1703 211.31 48.1703 211.391 48.1703C210.904 48.4929 210.323 48.6737 209.701 48.6737V46.9569C210.052 46.9569 210.323 46.8537 210.553 46.6084V46.5955Z" fill="#CCCCCC"/>
</g>
<path d="M205.535 49.177H184.841V52.3006H182.46L181.094 59.7225H184.854V65.3889H205.548C207.361 65.3889 208.821 61.7618 208.821 57.2829C208.821 52.804 207.361 49.177 205.548 49.177H205.535Z" fill="#1A1A1A"/>
<path d="M185.449 49.177H173.98V56.999H185.449V49.177Z" fill="#223946"/>
<path d="M185.869 17.1147H173.98V48.0023H185.869V17.1147Z" fill="#001B48"/>
<path d="M212.095 17.1147H185.666V48.0023H212.095V17.1147Z" fill="#001B48"/>
<path d="M196.107 22.2002H186.477V48.0023H196.107V22.2002Z" fill="#001B48"/>
<path d="M214.516 32.436H196.067V48.1186H214.516V32.436Z" fill="#001B48"/>
<g style="mix-blend-mode:multiply">
<path d="M185.869 17.1147H173.98V48.0023H185.869V17.1147Z" fill="#CCCCCC"/>
</g>
<g style="mix-blend-mode:multiply">
<path d="M196.107 22.2002H186.477V48.0023H196.107V22.2002Z" fill="#CCCCCC"/>
</g>
<g style="mix-blend-mode:multiply">
<path d="M214.516 32.436H196.067V48.1186H214.516V32.436Z" fill="#CCCCCC"/>
</g>
<path d="M184.638 53.5785C184.638 51.0357 185.463 48.9834 186.477 48.9834H194.268V58.1736H186.477C185.463 58.1736 184.638 56.1213 184.638 53.5785Z" fill="#E6E6E6"/>
<path d="M191.59 50.145H184.016V51.126H191.59V50.145Z" fill="#001B48"/>
<path d="M191.59 55.6309H184.016V56.6118H191.59V55.6309Z" fill="#001B48"/>
<path d="M204.304 46.0405H193.646V58.1607H204.304V46.0405Z" fill="#1A1A1A"/>
<path d="M206.346 48.7769H197.947V65.0016H206.346V48.7769Z" fill="#1A1A1A"/>
<path d="M194.674 56.8957C194.674 61.3746 196.148 65.0146 197.947 65.0146C199.746 65.0146 201.22 61.3875 201.22 56.8957C201.22 52.4039 199.746 48.7898 197.947 48.7898C196.148 48.7898 194.674 52.4168 194.674 56.8957Z" fill="#223946"/>
<path d="M196.31 56.8958C196.31 59.1417 197.041 60.9487 197.947 60.9487C198.853 60.9487 199.584 59.1288 199.584 56.8958C199.584 54.6628 198.853 52.8428 197.947 52.8428C197.041 52.8428 196.31 54.6628 196.31 56.8958Z" fill="#77A2CC"/>
<path d="M227.04 48.7769H218.641V65.0016H227.04C228.853 65.0016 230.313 61.3746 230.313 56.8828C230.313 52.391 228.839 48.7769 227.04 48.7769Z" fill="#1A1A1A"/>
<path d="M218.682 52.1845V45.3306H237.428C238.794 45.3306 239.917 46.4019 239.917 47.7056V52.1974H218.682V52.1845Z" fill="#001B48"/>
<path d="M202.978 58.1994V52.0554C202.978 49.7579 201.653 47.8863 200.03 47.8863H196.878C195.255 47.8863 193.93 49.7579 193.93 52.0554V58.1994H191.225V49.4997C191.225 47.2022 192.55 45.3306 194.173 45.3306H213.718C215.341 45.3306 216.666 47.2022 216.666 49.4997V58.1994H202.978Z" fill="#001B48"/>
<path d="M214.529 46.3892H205.562V50.8165H214.529V46.3892Z" fill="#77A2CC"/>
<path d="M229.948 32.436H214.516V51.9521H229.948V32.436Z" fill="#001B48"/>
<path d="M229.286 34.7466H215.449V51.7071H229.286V34.7466Z" fill="#87A5B0"/>
<g style="mix-blend-mode:multiply">
<path d="M228.109 34.7466H227.608V51.7071H228.109V34.7466Z" fill="#B2B2B2"/>
</g>
<g style="mix-blend-mode:multiply">
<path d="M226.892 34.7466H226.391V51.7071H226.892V34.7466Z" fill="#B2B2B2"/>
</g>
<g style="mix-blend-mode:multiply">
<path d="M225.674 34.7466H225.174V51.7071H225.674V34.7466Z" fill="#B2B2B2"/>
</g>
<g style="mix-blend-mode:multiply">
<path d="M224.457 34.7466H223.957V51.7071H224.457V34.7466Z" fill="#B2B2B2"/>
</g>
<g style="mix-blend-mode:multiply">
<path d="M223.253 34.7466H222.753V51.7071H223.253V34.7466Z" fill="#B2B2B2"/>
</g>
<g style="mix-blend-mode:multiply">
<path d="M222.036 34.7466H221.535V51.7071H222.036V34.7466Z" fill="#B2B2B2"/>
</g>
<g style="mix-blend-mode:multiply">
<path d="M220.819 34.7466H220.318V51.7071H220.819V34.7466Z" fill="#B2B2B2"/>
</g>
<g style="mix-blend-mode:multiply">
<path d="M219.601 34.7466H219.101V51.7071H219.601V34.7466Z" fill="#B2B2B2"/>
</g>
<g style="mix-blend-mode:multiply">
<path d="M218.384 34.7466H217.884V51.7071H218.384V34.7466Z" fill="#B2B2B2"/>
</g>
<g style="mix-blend-mode:multiply">
<path d="M217.167 34.7466H216.666V51.7071H217.167V34.7466Z" fill="#B2B2B2"/>
</g>
<path d="M195.066 32.5522H217.721L216.112 24.5496H193.443L195.066 32.5522Z" fill="#77A2CC"/>
<g style="mix-blend-mode:multiply">
<path d="M205.562 46.3892H213.772H214.516V46.9055V50.8165H213.772V46.9055H205.562V46.3892Z" fill="#B2B2B2"/>
</g>
<path d="M238.902 46.3889H229.948V50.8162H238.902V46.3889Z" fill="#77A2CC"/>
<g style="mix-blend-mode:multiply">
<path d="M229.948 46.3889H238.172H238.916V46.9052V50.8162H238.172V46.9052H229.948V46.3889Z" fill="#B2B2B2"/>
</g>
<g style="mix-blend-mode:screen">
<path d="M208.794 25.7886L203.005 32.5521H199.827L205.616 25.7886H208.794Z" fill="#77A2CC"/>
</g>
<g style="mix-blend-mode:screen">
<path d="M203.127 25.7886H204.534L198.731 32.5521H197.338L203.127 25.7886Z" fill="#77A2CC"/>
</g>
<path d="M241.242 51.7068H203.29V58.1993H241.242V51.7068Z" fill="#87A5B0"/>
<path d="M218.438 32.5522L216.599 23.7622H215.977L217.627 32.5522H218.438Z" fill="#001B48"/>
<path d="M193.849 32.3586L192.212 24.5496H187.505V32.3586H193.849Z" fill="#77A2CC"/>
<g style="mix-blend-mode:multiply">
<path d="M193.7 25.8144H216.977L216.477 23.2716L193.037 22.6133L193.7 25.8144Z" fill="#B2B2B2"/>
</g>
<path d="M193.051 24.7431H218.303L217.41 22.2004H192.158L193.051 24.7431Z" fill="#F2F2F2"/>
<path d="M205.129 15.9402H181.568V17.3084H205.129V15.9402Z" fill="#001B48"/>
<path d="M188.736 15.9402H181.568V17.3084H188.736V15.9402Z" fill="#001B48"/>
<g style="mix-blend-mode:multiply">
<path d="M188.736 15.9402H181.568V17.3084H188.736V15.9402Z" fill="#CCCCCC"/>
</g>
<path d="M188.533 48.6607V46.944C188.182 46.944 187.911 46.8408 187.681 46.5955C186.761 45.6533 186.721 43.188 186.775 42.4006V42.349L186.978 13.2425C187.005 12.7908 187.059 10.8159 186.072 9.82197C185.693 9.43477 185.192 9.22827 184.638 9.22827H183.001V10.945H184.638C184.638 10.945 184.705 10.945 184.76 10.9966C185.098 11.3322 185.219 12.4681 185.179 13.1651V13.2167L184.976 42.3102C184.935 42.8136 184.773 46.1438 186.369 47.7701C186.951 48.3639 187.695 48.6737 188.547 48.6737L188.533 48.6607Z" fill="#E6E6E6"/>
<g style="mix-blend-mode:multiply">
<path d="M183.556 9.46053L183.935 10.3898H185.571C185.571 10.3898 185.639 10.3898 185.693 10.4415C186.031 10.7771 186.153 11.9129 186.112 12.6099V12.6616L185.909 41.7551C185.869 42.2585 185.706 45.5886 187.302 47.215C187.654 47.5764 188.073 47.8345 188.547 47.9765V48.6606C187.695 48.6606 186.951 48.3508 186.369 47.7571C184.787 46.1307 184.949 42.8006 184.976 42.2972L185.179 13.2037V13.152C185.22 12.4679 185.098 11.3321 184.773 10.9836C184.719 10.932 184.706 10.932 184.651 10.932H183.015V9.21533L183.569 9.46053H183.556Z" fill="#CCCCCC"/>
</g>
<path d="M182.23 10.0802C182.23 10.5578 182.636 10.945 183.137 10.945C183.637 10.945 184.043 10.5578 184.043 10.0802C184.043 9.60257 183.637 9.22827 183.137 9.22827C182.636 9.22827 182.23 9.61547 182.23 10.0802Z" fill="#808080"/>
<path d="M189.223 26.3049H187.424C186.789 26.3049 186.274 26.7961 186.274 27.402V32.2423C186.274 32.8483 186.789 33.3394 187.424 33.3394H189.223C189.858 33.3394 190.373 32.8483 190.373 32.2423V27.402C190.373 26.7961 189.858 26.3049 189.223 26.3049Z" fill="#223946"/>
<path d="M190.292 37.6764H192.429V37.2117H190.292C189.791 37.2117 189.385 36.8245 189.385 36.3469V25.4401C189.385 24.9625 189.791 24.5753 190.292 24.5753H192.429V24.1106H190.292C189.521 24.1106 188.898 24.7044 188.898 25.4401V36.3469C188.898 37.0827 189.521 37.6764 190.292 37.6764Z" fill="#F2F2F2"/>
<path d="M188.114 29.8157C188.114 30.2417 188.479 30.6031 188.939 30.6031C189.399 30.6031 189.764 30.2546 189.764 29.8157V28.6411C189.764 28.2152 189.399 27.8538 188.939 27.8538C188.479 27.8538 188.114 28.2023 188.114 28.6411V29.8157Z" fill="#001B48"/>
<path d="M169.936 12.3394H28.4589V45.2529H169.936V12.3394Z" fill="#004479"/>
<g style="mix-blend-mode:multiply">
<path d="M130.184 12.3394H28.5129V45.2529H130.184V12.3394Z" fill="#004479"/>
</g>
<path d="M169.936 12.3394H131.983V45.2529H169.936V12.3394Z" fill="#97CADB"/>
<g style="mix-blend-mode:multiply">
<path d="M163.538 14.1384H165.378H167.42V14.9695V43.3259H165.378V14.9695H163.538V14.1384Z" fill="#004479"/>
</g>
<g style="mix-blend-mode:multiply">
<path d="M157.803 14.1384H159.683H161.685H161.726V43.3259H159.683V14.9695H157.803V14.1384Z" fill="#004479"/>
</g>
<g style="mix-blend-mode:multiply">
<path d="M152.055 14.1384H153.989H155.95H156.032V43.3259H153.989V14.8325H152.055V14.1384Z" fill="#004479"/>
</g>
<g style="mix-blend-mode:multiply">
<path d="M146.523 14.1384H148.295H150.337H150.418V14.8325H150.337V43.3259H148.295V14.8325H146.523V14.1384Z" fill="#004479"/>
</g>
<g style="mix-blend-mode:multiply">
<path d="M140.788 14.1384H142.601H144.643H144.684V14.8325H144.643V43.3259H142.601V14.8325H140.788V14.1384Z" fill="#004479"/>
</g>
<g style="mix-blend-mode:multiply">
<path d="M135.053 14.1384H136.893H138.949V14.8325V43.3259H136.893V14.8325H135.053V14.1384Z" fill="#004479"/>
</g>
<path d="M125.829 15.1064H124.192V45.0336H125.829V15.1064Z" fill="#97CADB"/>
<path d="M120.419 15.1064H118.782V45.0336H120.419V15.1064Z" fill="#97CADB"/>
<path d="M114.995 15.1064H113.358V45.0336H114.995V15.1064Z" fill="#97CADB"/>
<path d="M109.571 15.1064H107.935V45.0336H109.571V15.1064Z" fill="#97CADB"/>
<path d="M104.148 15.1064H102.511V45.0336H104.148V15.1064Z" fill="#97CADB"/>
<path d="M98.7238 15.1064H97.0872V45.0336H98.7238V15.1064Z" fill="#97CADB"/>
<path d="M93.3001 15.1064H91.6635V45.0336H93.3001V15.1064Z" fill="#97CADB"/>
<path d="M87.8899 15.1064H86.2533V45.0336H87.8899V15.1064Z" fill="#97CADB"/>
<path d="M82.4662 15.1064H80.8296V45.0336H82.4662V15.1064Z" fill="#97CADB"/>
<path d="M77.0424 15.1064H75.4058V45.0336H77.0424V15.1064Z" fill="#97CADB"/>
<path d="M71.6187 15.1064H69.9822V45.0336H71.6187V15.1064Z" fill="#97CADB"/>
<path d="M66.195 15.1064H64.5584V45.0336H66.195V15.1064Z" fill="#97CADB"/>
<path d="M60.7713 15.1064H59.1347V45.0336H60.7713V15.1064Z" fill="#97CADB"/>
<path d="M55.3611 15.1064H53.7245V45.0336H55.3611V15.1064Z" fill="#97CADB"/>
<path d="M55.4558 15.1431H53.8192V45.0703H55.4558V15.1431Z" fill="#97CADB"/>
<path d="M50.0321 15.1431H48.3955V45.0703H50.0321V15.1431Z" fill="#97CADB"/>
<path d="M44.6083 15.1431H42.9717V45.0703H44.6083V15.1431Z" fill="#97CADB"/>
<path d="M39.1846 15.1431H37.548V45.0703H39.1846V15.1431Z" fill="#97CADB"/>
<path d="M33.7609 15.1431H32.1243V45.0703H33.7609V15.1431Z" fill="#97CADB"/>
</g>
<defs>
<clipPath id="clip0_581_794">
<rect width="259" height="72" fill="white" transform="translate(0.174805)"/>
</clipPath>
</defs>
</svg>
