<svg width="262" height="83" viewBox="0 0 262 83" fill="none" xmlns="http://www.w3.org/2000/svg">
<path d="M116.99 61.9668C116.188 61.9668 115.47 62.5977 114.963 63.5978C114.786 63.8133 114.633 64.0903 114.503 64.3826L112.359 64.4903C111.864 63.0439 110.992 62.0899 110.014 62.0899C109.213 62.0899 108.494 62.7208 107.987 63.721C107.374 64.5057 106.985 65.8136 106.985 67.2908C106.985 68.768 107.386 70.0759 107.987 70.8607C108.494 71.8608 109.213 72.4917 110.014 72.4917C111.015 72.4917 111.899 71.4916 112.382 70.0144H114.539C114.668 70.2914 114.81 70.5376 114.975 70.7376C115.481 71.7378 116.2 72.3686 117.002 72.3686C118.545 72.3686 119.783 70.0298 119.783 67.1677C119.783 64.3057 118.533 61.9668 117.002 61.9668H116.99Z" fill="#1A1A1A"/>
<path d="M57.7646 61.4438C56.9633 61.4438 56.2445 62.0747 55.7378 63.0749C55.5611 63.2903 55.4079 63.5673 55.2783 63.8597L53.1336 63.9673C52.6387 62.5209 51.7667 61.5669 50.7887 61.5669C49.9874 61.5669 49.2685 62.1978 48.7618 63.198C48.1491 63.9827 47.7602 65.2907 47.7602 66.7679C47.7602 68.245 48.1609 69.553 48.7618 70.3377C49.2685 71.3379 49.9874 71.9688 50.7887 71.9688C51.7903 71.9688 52.674 70.9686 53.1572 69.4914H55.3136C55.4432 69.7684 55.5846 70.0146 55.7496 70.2146C56.2563 71.2148 56.9751 71.8457 57.7764 71.8457C59.3201 71.8457 60.5574 69.5068 60.5574 66.6448C60.5574 63.7827 59.3083 61.4438 57.7764 61.4438H57.7646Z" fill="#1A1A1A"/>
<path d="M125.215 60.582H38.9576V64.0134H125.215V60.582Z" fill="#457084"/>
<g style="mix-blend-mode:multiply">
<path d="M125.215 60.582H38.9576V64.0134H125.215V60.582Z" fill="#C7C7C7"/>
</g>
<path d="M125.215 60.582H110.591V64.0134H125.215V60.582Z" fill="#457084"/>
<path d="M109.66 67.5525C109.66 70.4299 108.411 72.7534 106.879 72.7534C105.347 72.7534 104.098 70.4145 104.098 67.5525C104.098 64.6904 105.347 62.3516 106.879 62.3516C108.411 62.3516 109.66 64.6904 109.66 67.5525Z" fill="#457084"/>
<g style="mix-blend-mode:screen">
<path d="M109.059 67.5526C109.059 69.953 108.022 71.8919 106.738 71.8919C105.453 71.8919 104.416 69.953 104.416 67.5526C104.416 65.1522 105.453 63.2134 106.738 63.2134C108.022 63.2134 109.059 65.1522 109.059 67.5526Z" fill="#457084"/>
</g>
<path d="M108.482 67.5524C108.482 69.9528 107.445 71.8916 106.16 71.8916C104.876 71.8916 103.839 69.9528 103.839 67.5524C103.839 65.1519 104.876 63.2131 106.16 63.2131C107.445 63.2131 108.482 65.1519 108.482 67.5524Z" fill="#457084"/>
<path d="M102.672 67.4755C102.672 70.353 101.423 72.6765 99.8914 72.6765C98.3595 72.6765 97.1104 70.3376 97.1104 67.4755C97.1104 64.6135 98.3595 62.2747 99.8914 62.2747C101.423 62.2747 102.672 64.6135 102.672 67.4755Z" fill="#457084"/>
<g style="mix-blend-mode:screen">
<path d="M102.071 67.4757C102.071 69.8761 101.034 71.8149 99.75 71.8149C98.4655 71.8149 97.4286 69.8761 97.4286 67.4757C97.4286 65.0752 98.4655 63.1365 99.75 63.1365C101.034 63.1365 102.071 65.0752 102.071 67.4757Z" fill="#457084"/>
</g>
<path d="M101.494 67.4754C101.494 69.8758 100.457 71.8147 99.1726 71.8147C97.8882 71.8147 96.8512 69.8758 96.8512 67.4754C96.8512 65.075 97.8882 63.1362 99.1726 63.1362C100.457 63.1362 101.494 65.075 101.494 67.4754Z" fill="#457084"/>
<path d="M99.2433 70.199H106.596L107.245 64.4441L97.6996 64.9057L99.2433 70.199Z" fill="#457084"/>
<g style="mix-blend-mode:multiply">
<path d="M106.443 67.6139C106.443 68.4602 106.078 69.1527 105.618 69.1527C105.159 69.1527 104.793 68.4602 104.793 67.6139C104.793 66.7676 105.159 66.0752 105.618 66.0752C106.078 66.0752 106.443 66.7676 106.443 67.6139Z" fill="#C7C7C7"/>
</g>
<g style="mix-blend-mode:multiply">
<path d="M99.5261 67.6139C99.5261 68.4602 99.1608 69.1527 98.7012 69.1527C98.2417 69.1527 97.8764 68.4602 97.8764 67.6139C97.8764 66.7676 98.2417 66.0752 98.7012 66.0752C99.1608 66.0752 99.5261 66.7676 99.5261 67.6139Z" fill="#C7C7C7"/>
</g>
<g style="mix-blend-mode:screen">
<path d="M101.871 69.2295H100.422V69.6757H101.871V69.2295Z" fill="#457084"/>
<path d="M101.871 68.6448H100.422V69.091H101.871V68.6448Z" fill="#457084"/>
<path d="M101.871 68.0139H100.422V68.4602H101.871V68.0139Z" fill="#457084"/>
<path d="M101.871 67.3984H100.422V67.8447H101.871V67.3984Z" fill="#457084"/>
<path d="M101.871 66.783H100.422V67.2292H101.871V66.783Z" fill="#457084"/>
</g>
<g style="mix-blend-mode:screen">
<path d="M103.815 69.2144H102.366V69.6606H103.815V69.2144Z" fill="#457084"/>
<path d="M103.815 68.6296H102.366V69.0759H103.815V68.6296Z" fill="#457084"/>
<path d="M103.815 67.9988H102.366V68.445H103.815V67.9988Z" fill="#457084"/>
<path d="M103.815 67.3833H102.366V67.8295H103.815V67.3833Z" fill="#457084"/>
<path d="M103.815 66.7678H102.366V67.2141H103.815V66.7678Z" fill="#457084"/>
</g>
<path d="M50.4351 67.5522C50.4351 70.4297 49.186 72.7532 47.6541 72.7532C46.1222 72.7532 44.8731 70.4297 44.8731 67.5522C44.8731 64.6748 46.1222 62.3513 47.6541 62.3513C49.186 62.3513 50.4351 64.6748 50.4351 67.5522Z" fill="#457084"/>
<g style="mix-blend-mode:screen">
<path d="M49.8339 67.5524C49.8339 69.9528 48.797 71.8916 47.5125 71.8916C46.2281 71.8916 45.1911 69.9528 45.1911 67.5524C45.1911 65.1519 46.2281 63.2131 47.5125 63.2131C48.797 63.2131 49.8339 65.1519 49.8339 67.5524Z" fill="#457084"/>
</g>
<path d="M49.2567 67.5524C49.2567 69.9528 48.2197 71.8916 46.9353 71.8916C45.6508 71.8916 44.6139 69.9528 44.6139 67.5524C44.6139 65.1519 45.6508 63.2131 46.9353 63.2131C48.2197 63.2131 49.2567 65.1519 49.2567 67.5524Z" fill="#457084"/>
<path d="M43.4473 67.5371C43.4473 70.4145 42.1982 72.738 40.6663 72.738C39.1345 72.738 37.8854 70.3991 37.8854 67.5371C37.8854 64.6751 39.1345 62.3362 40.6663 62.3362C42.1982 62.3362 43.4473 64.6751 43.4473 67.5371Z" fill="#457084"/>
<g style="mix-blend-mode:screen">
<path d="M42.8464 67.5372C42.8464 69.9377 41.8094 71.8765 40.525 71.8765C39.2406 71.8765 38.2036 69.9377 38.2036 67.5372C38.2036 65.1368 39.2406 63.198 40.525 63.198C41.8094 63.198 42.8464 65.1368 42.8464 67.5372Z" fill="#457084"/>
</g>
<path d="M42.2689 67.537C42.2689 69.9374 41.2319 71.8762 39.9475 71.8762C38.6631 71.8762 37.6261 69.9374 37.6261 67.537C37.6261 65.1366 38.6631 63.1978 39.9475 63.1978C41.2319 63.1978 42.2689 65.1366 42.2689 67.537Z" fill="#457084"/>
<path d="M40.0183 70.2608H47.3713L48.0194 64.5059L38.4746 64.9521L40.0183 70.2608Z" fill="#457084"/>
<g style="mix-blend-mode:multiply">
<path d="M47.2182 67.6911C47.2182 68.5374 46.8529 69.2298 46.3933 69.2298C45.9338 69.2298 45.5685 68.5374 45.5685 67.6911C45.5685 66.8448 45.9338 66.1523 46.3933 66.1523C46.8529 66.1523 47.2182 66.8448 47.2182 67.6911Z" fill="#C7C7C7"/>
</g>
<g style="mix-blend-mode:multiply">
<path d="M40.3011 67.6911C40.3011 68.5374 39.9358 69.2298 39.4762 69.2298C39.0167 69.2298 38.6514 68.5374 38.6514 67.6911C38.6514 66.8448 39.0167 66.1523 39.4762 66.1523C39.9358 66.1523 40.3011 66.8448 40.3011 67.6911Z" fill="#C7C7C7"/>
</g>
<g style="mix-blend-mode:screen">
<path d="M42.6459 69.2913H41.1965V69.7375H42.6459V69.2913Z" fill="#457084"/>
<path d="M42.6459 68.7065H41.1965V69.1528H42.6459V68.7065Z" fill="#457084"/>
<path d="M42.6459 68.0603H41.1965V68.5065H42.6459V68.0603Z" fill="#457084"/>
<path d="M42.6459 67.4602H41.1965V67.9064H42.6459V67.4602Z" fill="#457084"/>
<path d="M42.6459 66.8447H41.1965V67.2909H42.6459V66.8447Z" fill="#457084"/>
</g>
<g style="mix-blend-mode:screen">
<path d="M44.5904 69.2759H43.141V69.7221H44.5904V69.2759Z" fill="#457084"/>
<path d="M44.5904 68.6912H43.141V69.1374H44.5904V68.6912Z" fill="#457084"/>
<path d="M44.5904 68.0449H43.141V68.4911H44.5904V68.0449Z" fill="#457084"/>
<path d="M44.5904 67.4448H43.141V67.8911H44.5904V67.4448Z" fill="#457084"/>
<path d="M44.5904 66.8293H43.141V67.2756H44.5904V66.8293Z" fill="#457084"/>
</g>
<path d="M83.0406 33.3772H66.7319V60.9051H83.0406V33.3772Z" fill="#1A1A1A"/>
<path d="M130.211 29.9305H126.169C126.098 29.9305 126.039 29.9305 125.969 29.9305H118.097C118.015 29.9305 117.944 29.9305 117.873 29.9305H113.855C112.5 29.8535 111.381 31.1922 111.239 32.931H111.227V33.5773H132.827C132.827 33.4695 132.827 33.3772 132.827 33.2695C132.827 31.3769 131.649 29.8381 130.199 29.9305H130.211Z" fill="#457084"/>
<path d="M51.5191 33.2541C51.5191 31.3769 50.3407 29.8381 48.8913 29.9305H36.7777C35.4225 29.8535 34.3031 31.1922 34.1617 32.9156H34.1499V60.1974H51.4366V34.1158C51.4956 33.8389 51.5191 33.5465 51.5191 33.2541Z" fill="#457084"/>
<path d="M66.7437 33.4541H34.1145V60.9051H66.7437V33.4541Z" fill="#97CBDC"/>
<g style="mix-blend-mode:multiply">
<path d="M66.7437 33.4541H34.1145V60.9051H66.7437V33.4541Z" fill="#001B49"/>
</g>
<path d="M113.396 33.4543H82.0861V60.9053H113.396V33.4543Z" fill="#97CBDC"/>
<g style="mix-blend-mode:multiply">
<path d="M113.396 33.4543H82.0861V60.9053H113.396V33.4543Z" fill="#001B49"/>
</g>
<path d="M130.765 33.9311C130.765 32.0385 129.586 30.4998 128.137 30.4998H116.023C114.668 30.4998 113.549 31.8538 113.407 33.5772H113.396V60.982H130.682V34.7928C130.741 34.5159 130.765 34.2235 130.765 33.9311Z" fill="#97CBDC"/>
<g style="mix-blend-mode:multiply">
<path d="M119.912 34.4541H119.429V60.9818H119.912V34.4541Z" fill="#97CBDC"/>
</g>
<g style="mix-blend-mode:multiply">
<path d="M124.732 34.4692H124.249V60.997H124.732V34.4692Z" fill="#97CBDC"/>
</g>
<g style="mix-blend-mode:screen">
<path d="M130.671 33.5772H125.179V33.4695H124.696V33.5772H120.348V33.5156H119.877V33.5772H113.407V34.4697H119.877V61.1974H120.348V34.4697H124.696V61.1513H125.179V34.4697H130.671V33.5772Z" fill="black"/>
</g>
<g style="mix-blend-mode:multiply">
<path d="M119.9 34.4543H113.396V35.3468H119.9V34.4543Z" fill="#97CBDC"/>
</g>
<g style="mix-blend-mode:multiply">
<path d="M130.682 34.4541H125.215V35.3466H130.682V34.4541Z" fill="#97CBDC"/>
</g>
<g style="mix-blend-mode:multiply">
<path d="M124.248 34.4541H120.407V35.3466H124.248V34.4541Z" fill="#97CBDC"/>
</g>
<g style="mix-blend-mode:screen">
<path d="M113.443 33.5774V34.4699H119.912V60.9976H120.384V34.4699H124.732V60.9976H125.215V34.4699H130.718V33.5774H113.443Z" fill="#6E2D12"/>
</g>
<g style="mix-blend-mode:multiply">
<path d="M94.9186 33.5774H93.9641V60.9822H94.9186V33.5774Z" fill="#97CBDC"/>
<path d="M104.958 60.8282H105.913V33.4233H105.347H104.958V60.8282Z" fill="#97CBDC"/>
<path d="M94.8951 61.182L94.2706 60.782L105.123 32.4231L105.76 32.4693L114.362 60.8127L113.702 61.1513L105.406 33.7618L94.8951 61.182Z" fill="#97CBDC"/>
<g style="mix-blend-mode:multiply">
<path d="M102.425 33.5157L104.016 35.9776H106.714L108.305 33.4233L102.425 33.5157Z" fill="#97CBDC"/>
</g>
<path d="M94.1267 33.4412L82.7843 60.5051L83.4046 60.9484L94.7469 33.8844L94.1267 33.4412Z" fill="#97CBDC"/>
<path d="M83.7476 33.5002H82.7931V60.9051H83.7476V33.5002Z" fill="#97CBDC"/>
</g>
<path d="M94.2706 33.5774H93.3161V60.9822H94.2706V33.5774Z" fill="#97CBDC"/>
<path d="M104.322 60.8282H105.277V33.4233H104.711H104.322V60.8282Z" fill="#97CBDC"/>
<path d="M94.2588 61.182L93.6225 60.782L104.487 32.4231L105.123 32.4693L113.726 60.8127L113.066 61.1513L104.758 33.7618L94.2588 61.182Z" fill="#97CBDC"/>
<path d="M93.4903 33.4153L82.1443 60.4767L82.7645 60.92L94.1105 33.8586L93.4903 33.4153Z" fill="#97CBDC"/>
<path d="M83.0524 33.5002H82.0861V60.9051H83.0524V33.5002Z" fill="#97CBDC"/>
<g style="mix-blend-mode:multiply">
<path d="M55.2309 33.4851H54.2765V60.8899H55.2309V33.4851Z" fill="#97CBDC"/>
<path d="M44.2367 60.7359H43.2822V33.3311H43.8478H44.2367V60.7359Z" fill="#97CBDC"/>
<path d="M54.3 61.0897L54.9363 60.6743L44.0717 32.3308L43.4354 32.3616L34.8333 60.7205L35.4931 61.059L43.8007 33.6695L54.3 61.0897Z" fill="#97CBDC"/>
<path d="M65.7891 60.8282L65.907 59.1817L55.0659 33.3311L54.4414 33.7619L65.7891 60.8282Z" fill="#97CBDC"/>
</g>
<path d="M54.5357 33.4851H53.5694V60.8899H54.5357V33.4851Z" fill="#97CBDC"/>
<g style="mix-blend-mode:multiply">
<path d="M66.7318 33.3772H65.7773V60.782H66.7318V33.3772Z" fill="#97CBDC"/>
</g>
<path d="M66.0366 33.3772H65.0703V60.782H66.0366V33.3772Z" fill="#97CBDC"/>
<path d="M43.5297 60.7359H42.5752V33.3311H43.1408H43.5297V60.7359Z" fill="#97CBDC"/>
<path d="M53.5929 61.0897L43.0936 33.6695L34.7861 61.059L34.1262 60.7205L42.7283 32.3616L43.3647 32.3308L54.2293 60.6743L53.5929 61.0897Z" fill="#97CBDC"/>
<path d="M54.3479 33.334L53.7278 33.7773L65.0737 60.8387L65.6939 60.3954L54.3479 33.334Z" fill="#97CBDC"/>
<path d="M46.6642 29.9307H34.5505C33.1954 29.8538 32.0759 31.1617 31.9345 32.8235H31.9227V33.4544H49.2802C49.2802 33.3621 49.2919 33.2544 49.2919 33.1621C49.2919 31.331 48.1136 29.8538 46.6642 29.9307Z" fill="#457084"/>
<g style="mix-blend-mode:multiply">
<path d="M129.257 33.5619H130.741C130.6 31.8385 129.492 30.4998 128.125 30.4998H116.012C115.387 30.4998 114.821 30.7768 114.374 31.2538H114.409C114.48 31.2538 114.562 31.2538 114.633 31.2538H122.504C122.575 31.2538 122.646 31.2538 122.705 31.2538H126.747C127.925 31.1922 128.915 32.177 129.245 33.5619H129.257Z" fill="#97CBDC"/>
</g>
<path d="M114.374 33.4234V32.7771H114.385C114.492 31.4384 115.187 30.3151 116.129 29.9304H36V33.4541H114.374V33.4234Z" fill="#457084"/>
<g style="mix-blend-mode:multiply">
<path d="M41.2319 33.5464L42.8345 36.0084H45.533L47.112 33.4541L41.2319 33.5464Z" fill="#97CBDC"/>
</g>
<path d="M40.3953 33.5464L41.9978 36.0084H44.6963L46.2871 33.4541L40.3953 33.5464Z" fill="#97CBDC"/>
<path d="M101.588 33.5157L103.191 35.9776H105.878L107.468 33.4233L101.588 33.5157Z" fill="#97CBDC"/>
<path d="M83.5709 58.9509H82.3454C81.9448 58.9509 81.6148 58.5201 81.6148 57.9969V54.1501C81.6148 53.6269 81.9448 53.196 82.3454 53.196H83.5709C83.9716 53.196 84.3015 53.6269 84.3015 54.1501V57.9969C84.3015 58.5201 83.9716 58.9509 83.5709 58.9509ZM82.3454 53.5961C82.1215 53.5961 81.933 53.8423 81.933 54.1347V57.9815C81.933 58.2739 82.1215 58.5201 82.3454 58.5201H83.5709C83.7948 58.5201 83.9834 58.2739 83.9834 57.9815V54.1347C83.9834 53.8423 83.7948 53.5961 83.5709 53.5961H82.3454Z" fill="#97CBDC"/>
<path d="M83.2409 42.4401H82.0154C81.6148 42.4401 81.2848 42.0093 81.2848 41.4861V37.6393C81.2848 37.1161 81.6148 36.6853 82.0154 36.6853H83.2409C83.6416 36.6853 83.9715 37.1161 83.9715 37.6393V41.4861C83.9715 42.0093 83.6416 42.4401 83.2409 42.4401ZM82.0154 37.0853C81.7915 37.0853 81.603 37.3316 81.603 37.6239V41.4707C81.603 41.7631 81.7915 42.0093 82.0154 42.0093H83.2409C83.4648 42.0093 83.6534 41.7631 83.6534 41.4707V37.6239C83.6534 37.3316 83.4648 37.0853 83.2409 37.0853H82.0154Z" fill="#97CBDC"/>
<path d="M82.1451 34.1003H65.5536V60.7666H82.1451V34.1003Z" fill="#97CBDC"/>
<g style="mix-blend-mode:multiply">
<path d="M82.1451 34.1003H65.7893V60.7666H82.1451V34.1003Z" fill="#001B49"/>
</g>
<path d="M82.1451 34.562H74.521H74.0378H65.0704V35.4699H74.0378V59.8434H74.521V35.4699H82.1451V34.562Z" fill="#97CBDC"/>
<path d="M83.0524 59.6282H52.6975V60.8745H83.0524V59.6282Z" fill="#97CBDC"/>
<path d="M83.0407 33.3926H52.509V34.7159H83.0407V33.3926Z" fill="#97CBDC"/>
<path d="M122.563 62.1206H115.729V64.0594H122.563V62.1206Z" fill="#457084"/>
<path d="M127.524 59.4587H120.548V64.952H127.524V59.4587Z" fill="#457084"/>
<g style="mix-blend-mode:multiply">
<path d="M120.548 59.4587V62.1208H115.729V64.0749H120.548V64.952H127.524V59.4587H120.548Z" fill="#C7C7C7"/>
</g>
<path d="M127.524 59.4587H122.563V64.952H127.524V59.4587Z" fill="#457084"/>
<path d="M129.092 61.8899H124.732V63.7825H129.092V61.8899Z" fill="#457084"/>
<g style="mix-blend-mode:multiply">
<path d="M129.08 61.8899H126.169V63.7825H129.08V61.8899Z" fill="#C7C7C7"/>
</g>
<g style="mix-blend-mode:multiply">
<path d="M126.169 59.4587H124.248V64.952H126.169V59.4587Z" fill="#C7C7C7"/>
</g>
<path d="M244.933 72.1833H31.9323V73.0457H244.933V72.1833Z" fill="#E2E2E2"/>
<path d="M120.694 65.6909C119.778 65.6909 119.029 64.7368 119.029 63.552V51.7038C119.029 50.5189 119.778 49.5649 120.694 49.5649H133.921C134.837 49.5649 135.586 50.5189 135.586 51.7038V56.5354H135.276V51.7038C135.276 50.7344 134.67 49.9342 133.921 49.9342H120.694C119.946 49.9342 119.339 50.7344 119.339 51.7038V63.552C119.339 64.5214 119.946 65.3216 120.694 65.3216V65.6909Z" fill="#16242C"/>
<path d="M136.876 70.1378L122.113 70.1532L119.597 66.3986L119.636 56.5969H137.999L137.96 65.46L136.876 70.1378Z" fill="#457084"/>
<g style="mix-blend-mode:multiply">
<path d="M136.876 70.1378L122.113 70.1532L119.597 66.3986L119.636 56.5969H137.999L137.96 65.46L136.876 70.1378Z" fill="#C7C7C7"/>
</g>
<path d="M172.092 58.1973H123.378V66.1833H172.092V58.1973Z" fill="#457084"/>
<g style="mix-blend-mode:multiply">
<path d="M172.092 58.1973H123.378V66.1833H172.092V58.1973Z" fill="#C7C7C7"/>
</g>
<path d="M149.187 66.1831C149.187 69.6606 147.535 72.4765 145.509 72.4765C143.483 72.4765 141.831 69.6606 141.831 66.1831C141.831 62.7055 143.483 59.8896 145.509 59.8896C147.535 59.8896 149.187 62.7055 149.187 66.1831Z" fill="#457084"/>
<g style="mix-blend-mode:screen">
<path d="M148.374 66.1831C148.374 69.0759 147.006 71.4148 145.303 71.4148C143.599 71.4148 142.231 69.0759 142.231 66.1831C142.231 63.2903 143.599 60.9514 145.303 60.9514C147.006 60.9514 148.374 63.2903 148.374 66.1831Z" fill="#457084"/>
</g>
<path d="M147.625 66.1831C147.625 69.0759 146.258 71.4148 144.554 71.4148C142.851 71.4148 141.483 69.0759 141.483 66.1831C141.483 63.2903 142.851 60.9514 144.554 60.9514C146.258 60.9514 147.625 63.2903 147.625 66.1831Z" fill="#457084"/>
<path d="M139.947 66.1062C139.947 69.5837 138.296 72.3996 136.27 72.3996C134.244 72.3996 132.592 69.5837 132.592 66.1062C132.592 62.6286 134.244 59.8127 136.27 59.8127C138.296 59.8127 139.947 62.6286 139.947 66.1062Z" fill="#457084"/>
<g style="mix-blend-mode:screen">
<path d="M139.135 66.1062C139.135 68.999 137.767 71.3379 136.076 71.3379C134.386 71.3379 133.005 68.999 133.005 66.1062C133.005 63.2134 134.373 60.8745 136.076 60.8745C137.78 60.8745 139.135 63.2134 139.135 66.1062Z" fill="#457084"/>
</g>
<path d="M138.386 66.1062C138.386 68.999 137.018 71.3379 135.328 71.3379C133.637 71.3379 132.257 68.999 132.257 66.1062C132.257 63.2134 133.624 60.8745 135.328 60.8745C137.031 60.8745 138.386 63.2134 138.386 66.1062Z" fill="#457084"/>
<path d="M138.386 66.1062C138.386 68.999 137.018 71.3379 135.328 71.3379C133.637 71.3379 132.257 68.999 132.257 66.1062C132.257 63.2134 133.624 60.8745 135.328 60.8745C137.031 60.8745 138.386 63.2134 138.386 66.1062Z" fill="#457084"/>
<path d="M135.405 69.3837H145.135L146.58 63.752H133.611L135.405 69.3837Z" fill="#457084"/>
<g style="mix-blend-mode:multiply">
<path d="M144.928 66.2603C144.928 67.2913 144.438 68.1068 143.845 68.1068C143.251 68.1068 142.761 67.2759 142.761 66.2603C142.761 65.2448 143.251 64.4138 143.845 64.4138C144.438 64.4138 144.928 65.2448 144.928 66.2603Z" fill="#C7C7C7"/>
</g>
<g style="mix-blend-mode:multiply">
<path d="M135.779 66.2603C135.779 67.2913 135.289 68.1068 134.695 68.1068C134.102 68.1068 133.611 67.2759 133.611 66.2603C133.611 65.2448 134.102 64.4138 134.695 64.4138C135.289 64.4138 135.779 65.2448 135.779 66.2603Z" fill="#C7C7C7"/>
</g>
<g style="mix-blend-mode:screen">
<path d="M138.876 68.2144H136.954V68.7529H138.876V68.2144Z" fill="#457084"/>
<path d="M138.876 67.5066H136.954V68.0452H138.876V67.5066Z" fill="#457084"/>
<path d="M138.876 66.7371H136.954V67.2756H138.876V66.7371Z" fill="#457084"/>
<path d="M138.876 66.0139H136.954V66.5525H138.876V66.0139Z" fill="#457084"/>
<path d="M138.876 65.26H136.954V65.7985H138.876V65.26Z" fill="#457084"/>
</g>
<g style="mix-blend-mode:screen">
<path d="M141.47 68.199H139.547V68.7375H141.47V68.199Z" fill="#457084"/>
<path d="M141.47 67.4912H139.547V68.0298H141.47V67.4912Z" fill="#457084"/>
<path d="M141.47 66.7217H139.547V67.2602H141.47V66.7217Z" fill="#457084"/>
<path d="M141.47 65.9832H139.547V66.5217H141.47V65.9832Z" fill="#457084"/>
<path d="M141.47 65.2446H139.547V65.7832H141.47V65.2446Z" fill="#457084"/>
</g>
<path d="M229.786 59.2588H202.752V70.1376H229.786V59.2588Z" fill="#457084"/>
<g style="mix-blend-mode:multiply">
<path d="M229.786 59.2588H202.752V70.1376H229.786V59.2588Z" fill="#C7C7C7"/>
</g>
<path d="M202.068 59.2588H178.75V70.1376H202.068V59.2588Z" fill="#457084"/>
<path d="M175.782 59.3665H152.464V70.2453H175.782V59.3665Z" fill="#457084"/>
<path d="M170.917 59.3665C170.84 59.9819 170.801 60.6128 170.801 61.2745C170.801 66.2292 173.111 70.2453 175.95 70.2453C178.789 70.2453 181.099 66.2292 181.099 61.2745C181.099 60.6128 181.06 59.9819 180.983 59.3665H170.917Z" fill="#457084"/>
<g style="mix-blend-mode:multiply">
<path d="M170.917 59.3665C170.84 59.9819 170.801 60.6128 170.801 61.2745C170.801 66.2292 173.111 70.2453 175.95 70.2453C178.789 70.2453 181.099 66.2292 181.099 61.2745C181.099 60.6128 181.06 59.9819 180.983 59.3665H170.917Z" fill="#C7C7C7"/>
</g>
<path d="M197.513 59.2588C197.436 59.8743 197.397 60.5052 197.397 61.1668C197.397 66.1216 199.707 70.1376 202.546 70.1376C205.385 70.1376 207.694 66.1216 207.694 61.1668C207.694 60.5052 207.656 59.8743 207.578 59.2588H197.513Z" fill="#457084"/>
<path d="M173.731 59.2588C173.653 59.8743 173.614 60.5052 173.614 61.1668C173.614 66.1216 175.924 70.1376 178.763 70.1376C181.602 70.1376 183.912 66.1216 183.912 61.1668C183.912 60.5052 183.873 59.8743 183.796 59.2588H173.731Z" fill="#457084"/>
<path d="M147.458 59.3665C147.38 59.9819 147.342 60.6128 147.342 61.2745C147.342 66.2292 149.651 70.2453 152.49 70.2453C155.329 70.2453 157.639 66.2292 157.639 61.2745C157.639 60.6128 157.6 59.9819 157.523 59.3665H147.458Z" fill="#457084"/>
<path d="M153.948 61.4285H135.16V63.4442H153.948V61.4285Z" fill="#457084"/>
<g style="mix-blend-mode:multiply">
<path d="M147.471 62.4593L170.04 62.4285V63.3825H148.503L147.471 62.4593Z" fill="#C7C7C7"/>
</g>
<g style="mix-blend-mode:multiply">
<path d="M197.513 59.2588C197.436 59.8743 197.397 60.5052 197.397 61.1668C197.397 66.1216 199.707 70.1376 202.546 70.1376C205.385 70.1376 207.694 66.1216 207.694 61.1668C207.694 60.5052 207.656 59.8743 207.578 59.2588H197.513Z" fill="#C7C7C7"/>
</g>
<path d="M219.36 66.583C219.36 70.0605 217.708 72.8764 215.682 72.8764C213.656 72.8764 212.004 70.0605 212.004 66.583C212.004 63.1054 213.656 60.2896 215.682 60.2896C217.708 60.2896 219.36 63.1054 219.36 66.583Z" fill="#457084"/>
<g style="mix-blend-mode:screen">
<path d="M218.547 66.583C218.547 69.4758 217.179 71.8147 215.476 71.8147C213.772 71.8147 212.404 69.4758 212.404 66.583C212.404 63.6902 213.772 61.3513 215.476 61.3513C217.179 61.3513 218.547 63.6902 218.547 66.583Z" fill="#457084"/>
</g>
<path d="M217.798 66.583C217.798 69.4758 216.431 71.8147 214.727 71.8147C213.024 71.8147 211.669 69.4758 211.669 66.583C211.669 63.6902 213.037 61.3513 214.727 61.3513C216.418 61.3513 217.798 63.6902 217.798 66.583Z" fill="#457084"/>
<path d="M210.12 66.5061C210.12 69.9836 208.469 72.7995 206.443 72.7995C204.417 72.7995 202.765 69.9836 202.765 66.5061C202.765 63.0286 204.417 60.2126 206.443 60.2126C208.469 60.2126 210.12 63.0286 210.12 66.5061Z" fill="#457084"/>
<g style="mix-blend-mode:screen">
<path d="M209.32 66.5061C209.32 69.399 207.952 71.7378 206.249 71.7378C204.546 71.7378 203.178 69.399 203.178 66.5061C203.178 63.6133 204.546 61.2744 206.249 61.2744C207.952 61.2744 209.32 63.6133 209.32 66.5061Z" fill="#457084"/>
</g>
<path d="M208.559 66.5061C208.559 69.399 207.191 71.7378 205.488 71.7378C203.784 71.7378 202.417 69.399 202.417 66.5061C202.417 63.6133 203.784 61.2744 205.488 61.2744C207.191 61.2744 208.559 63.6133 208.559 66.5061Z" fill="#457084"/>
<path d="M208.559 66.5061C208.559 69.399 207.191 71.7378 205.488 71.7378C203.784 71.7378 202.417 69.399 202.417 66.5061C202.417 63.6133 203.784 61.2744 205.488 61.2744C207.191 61.2744 208.559 63.6133 208.559 66.5061Z" fill="#457084"/>
<path d="M205.578 69.7991H215.308L216.147 62.8286L203.539 63.3826L205.578 69.7991Z" fill="#457084"/>
<g style="mix-blend-mode:multiply">
<path d="M215.101 66.6599C215.101 67.6909 214.611 68.5064 214.017 68.5064C213.424 68.5064 212.933 67.6755 212.933 66.6599C212.933 65.6444 213.424 64.8135 214.017 64.8135C214.611 64.8135 215.101 65.6444 215.101 66.6599Z" fill="#C7C7C7"/>
</g>
<g style="mix-blend-mode:multiply">
<path d="M205.952 66.6599C205.952 67.6909 205.462 68.5064 204.868 68.5064C204.275 68.5064 203.784 67.6755 203.784 66.6599C203.784 65.6444 204.275 64.8135 204.868 64.8135C205.462 64.8135 205.952 65.6444 205.952 66.6599Z" fill="#C7C7C7"/>
</g>
<g style="mix-blend-mode:screen">
<path d="M209.049 68.6294H207.127V69.168H209.049V68.6294Z" fill="#457084"/>
<path d="M209.049 67.9062H207.127V68.4449H209.049V67.9062Z" fill="#457084"/>
<path d="M209.049 67.1367H207.127V67.6753H209.049V67.1367Z" fill="#457084"/>
<path d="M209.049 66.4136H207.127V66.9521H209.049V66.4136Z" fill="#457084"/>
<path d="M209.049 65.6597H207.127V66.1982H209.049V65.6597Z" fill="#457084"/>
</g>
<g style="mix-blend-mode:screen">
<path d="M211.643 68.5986H209.72V69.1372H211.643V68.5986Z" fill="#457084"/>
<path d="M211.643 67.8909H209.72V68.4294H211.643V67.8909Z" fill="#457084"/>
<path d="M211.643 67.1213H209.72V67.6599H211.643V67.1213Z" fill="#457084"/>
<path d="M211.643 66.3982H209.72V66.9368H211.643V66.3982Z" fill="#457084"/>
<path d="M211.643 65.6443H209.72V66.1828H211.643V65.6443Z" fill="#457084"/>
</g>
<path d="M205.475 64.7827H202.055C201.792 64.7827 201.578 65.0377 201.578 65.3521V68.0295C201.578 68.3439 201.792 68.5988 202.055 68.5988H205.475C205.739 68.5988 205.952 68.3439 205.952 68.0295V65.3521C205.952 65.0377 205.739 64.7827 205.475 64.7827Z" fill="#457084"/>
<g style="mix-blend-mode:multiply">
<path d="M205.475 64.7827H202.055C201.792 64.7827 201.578 65.0377 201.578 65.3521V68.0295C201.578 68.3439 201.792 68.5988 202.055 68.5988H205.475C205.739 68.5988 205.952 68.3439 205.952 68.0295V65.3521C205.952 65.0377 205.739 64.7827 205.475 64.7827Z" fill="#C7C7C7"/>
</g>
<path d="M215.153 64.7827H211.733C211.47 64.7827 211.256 65.0377 211.256 65.3521V68.0295C211.256 68.3439 211.47 68.5988 211.733 68.5988H215.153C215.417 68.5988 215.63 68.3439 215.63 68.0295V65.3521C215.63 65.0377 215.417 64.7827 215.153 64.7827Z" fill="#457084"/>
<g style="mix-blend-mode:multiply">
<path d="M215.153 64.7827H211.733C211.47 64.7827 211.256 65.0377 211.256 65.3521V68.0295C211.256 68.3439 211.47 68.5988 211.733 68.5988H215.153C215.417 68.5988 215.63 68.3439 215.63 68.0295V65.3521C215.63 65.0377 215.417 64.7827 215.153 64.7827Z" fill="#C7C7C7"/>
</g>
<path d="M173.679 59.2588V59.5973C173.679 59.5973 173.666 59.5973 173.653 59.5973C173.111 59.5973 172.659 60.4744 172.659 61.5669C172.659 62.6594 173.098 63.5365 173.653 63.5365C173.653 63.5365 173.666 63.5365 173.679 63.5365V63.5673H192.364V59.2588H173.679Z" fill="#457084"/>
<g style="mix-blend-mode:multiply">
<path d="M191.371 61.4131C191.371 61.8285 191.422 62.2132 191.512 62.5363H172.789C172.853 62.7825 172.956 62.9979 173.059 63.1518C173.279 63.3826 173.447 63.4749 173.55 63.5211C173.589 63.5211 173.614 63.5211 173.653 63.5211C173.653 63.5211 173.666 63.5211 173.679 63.5211V63.5519H192.364V59.2588C191.809 59.2588 191.371 60.2282 191.371 61.4131Z" fill="#C7C7C7"/>
</g>
<path d="M169.046 61.413C169.046 60.3205 169.485 59.4434 170.04 59.4434C170.595 59.4434 171.034 60.3205 171.034 61.413C171.034 62.5055 170.595 63.3826 170.04 63.3826C169.485 63.3826 169.046 62.5055 169.046 61.413Z" fill="#457084"/>
<path d="M135.405 64.3831H131.986C131.722 64.3831 131.508 64.6379 131.508 64.9524V67.6298C131.508 67.9442 131.722 68.1991 131.986 68.1991H135.405C135.669 68.1991 135.883 67.9442 135.883 67.6298V64.9524C135.883 64.6379 135.669 64.3831 135.405 64.3831Z" fill="#457084"/>
<g style="mix-blend-mode:multiply">
<path d="M135.405 64.3831H131.986C131.722 64.3831 131.508 64.6379 131.508 64.9524V67.6298C131.508 67.9442 131.722 68.1991 131.986 68.1991H135.405C135.669 68.1991 135.883 67.9442 135.883 67.6298V64.9524C135.883 64.6379 135.669 64.3831 135.405 64.3831Z" fill="#C7C7C7"/>
</g>
<path d="M145.083 64.3831H141.664C141.4 64.3831 141.186 64.6379 141.186 64.9524V67.6298C141.186 67.9442 141.4 68.1991 141.664 68.1991H145.083C145.347 68.1991 145.561 67.9442 145.561 67.6298V64.9524C145.561 64.6379 145.347 64.3831 145.083 64.3831Z" fill="#457084"/>
<g style="mix-blend-mode:multiply">
<path d="M145.083 64.3831H141.664C141.4 64.3831 141.186 64.6379 141.186 64.9524V67.6298C141.186 67.9442 141.4 68.1991 141.664 68.1991H145.083C145.347 68.1991 145.561 67.9442 145.561 67.6298V64.9524C145.561 64.6379 145.347 64.3831 145.083 64.3831Z" fill="#C7C7C7"/>
</g>
<path d="M169.717 35.2085V35.1777H124.875V59.2281H169.601V59.2589H214.43V35.2085H169.717Z" fill="#001B49"/>
<path d="M217.579 45.6104V37.3936H206.714V59.7513H217.579V66.5526H222.534V59.2589H228.031V45.6104H217.579Z" fill="#F7971E"/>
<path d="M217.579 45.6104V37.3936H206.714V59.7513H217.579V66.5526H222.534V59.2589H228.031V45.6104H217.579Z" fill="#001B49"/>
<path d="M131.017 45.072L133.031 36.8706H140.683V59.213H129.817V66.0142H124.862L124.875 58.7668V45.072H131.017Z" fill="#001B49"/>
<path d="M217.579 45.6104L215.618 37.3936H227.825L228.728 41.3943L217.579 45.6104Z" fill="#EA4D20"/>
<path d="M216.121 45.872L214.069 37.4243L229.464 37.3936L230.509 41.3019L216.121 45.872Z" fill="#97CADB"/>
<path d="M234.032 43.1484H239.284L241.581 45.2873L242.213 58.7974L228.328 59.3975L228.031 45.6104L234.083 43.1484H234.032Z" fill="#001B49"/>
<path d="M239.826 59.259H232.909V43.1484H238.677L239.826 44.1332V49.2726V59.259Z" fill="#97CADB"/>
<path d="M216.121 45.8719L228.031 45.6103L234.29 43.1483L223.037 41.1172L216.121 45.8719Z" fill="#001B49"/>
<path d="M232.909 45.6104H226.199V59.2743H232.909V45.6104Z" fill="#001B49"/>
<path d="M216.405 44.41L214.792 37.8397L229.206 37.7319L230.174 41.9327L223.399 40.2862L216.405 44.41Z" fill="#3C9EB8"/>
<path d="M223.037 40.5633L222.405 36.8088H223.179L224.16 41.0096L223.037 40.5633Z" fill="#97CADB"/>
<path d="M229.554 35.3315L216.082 35.3008V37.3934L229.554 37.4242V35.3315Z" fill="#001B49"/>
<path d="M222.676 35.2239H214.069V37.4089H222.676V35.2239Z" fill="#001B49"/>
<g style="mix-blend-mode:multiply">
<path d="M229.541 35.4395H214.121V36.1319H229.541V35.4395Z" fill="#CCCCCC"/>
</g>
<path d="M243.4 71.7996L228.638 71.8304L226.122 68.0605L226.147 58.2742H244.51L244.484 67.1372L243.4 71.7996Z" fill="#97CADB"/>
<path d="M229.193 58.2742L226.16 61.0747V65.1523L233.606 58.2742H229.193Z" fill="#457084"/>
<path d="M234.303 71.7687L237.916 68.4296V64.3521L229.89 71.7687H234.303Z" fill="#457084"/>
<path d="M236.651 58.2742L226.16 67.9528V68.1375L227.773 70.5379L237.916 61.167V58.3203L237.864 58.2742H236.651Z" fill="#457084"/>
<path d="M236.651 58.2742L226.16 67.9528V68.1375L227.773 70.5379L237.916 61.167V58.3203L237.864 58.2742H236.651Z" fill="#457084"/>
<path d="M242.819 58.2742L244.523 61.0747V65.1523L240.342 58.2742H242.819Z" fill="#457084"/>
<path d="M239.942 71.7687L237.916 68.4296V64.3521L242.432 71.7687H239.942Z" fill="#457084"/>
<path d="M238.626 58.2742H237.942L237.916 58.3203V61.167L243.62 70.5379L243.8 70.0609L244.355 67.6758L238.626 58.2742Z" fill="#457084"/>
<path d="M229.631 67.4143C228.715 67.4143 227.967 66.4602 227.967 65.2754V53.4272C227.967 52.2424 228.715 51.2883 229.631 51.2883H242.858C243.774 51.2883 244.523 52.2424 244.523 53.4272V58.2588H244.213V53.4272C244.213 52.4578 243.607 51.6576 242.858 51.6576H229.631C228.883 51.6576 228.277 52.4578 228.277 53.4272V65.2754C228.277 66.2448 228.883 67.0449 229.631 67.0449V67.4143Z" fill="#457084"/>
<path d="M222.534 66.1987C221.863 66.1987 221.321 65.3523 221.321 64.306V53.6888C221.321 52.6424 221.863 51.7961 222.534 51.7961V52.0885C222.005 52.0885 221.566 52.8117 221.566 53.6888V64.306C221.566 65.1831 222.005 65.9063 222.534 65.9063V66.1987Z" fill="#457084"/>
<path d="M238.084 51.3035H237.761V58.2431H238.084V51.3035Z" fill="#457084"/>
<path d="M226.109 58.1511H222.534V66.5372H226.109V58.1511Z" fill="#457084"/>
<path d="M226.109 59.3975H223.244V59.7514H226.109V59.3975Z" fill="#97CADB"/>
<path d="M226.109 61.1978H223.244V61.5517H226.109V61.1978Z" fill="#97CADB"/>
<path d="M226.109 62.9211H223.244V63.3366H226.109V62.9211Z" fill="#97CADB"/>
<path d="M226.109 64.783H223.244V65.1369H226.109V64.783Z" fill="#97CADB"/>
<path d="M124.875 57.6279H121.301V66.014H124.875V57.6279Z" fill="#457084"/>
<path d="M124.81 58.9973H121.946V59.3512H124.81V58.9973Z" fill="#97CADB"/>
<path d="M124.81 60.7822H121.946V61.1361H124.81V60.7822Z" fill="#97CADB"/>
<path d="M124.81 62.521H121.946V62.9365H124.81V62.521Z" fill="#97CADB"/>
<path d="M124.81 64.3828H121.946V64.7367H124.81V64.3828Z" fill="#97CADB"/>
<path d="M143.677 38.04H141.186V45.1182H143.677V38.04Z" fill="#3C9EB8"/>
<path d="M213.708 38.1785H207.694V45.6105H213.708V38.1785Z" fill="#34889F"/>
<path d="M206.714 58.3511H173.098V59.7513H206.714V58.3511Z" fill="#001B49"/>
<path d="M173.369 58.3511H129.817V59.7513H173.369V58.3511Z" fill="#001B49"/>
<g style="mix-blend-mode:multiply">
<path d="M172.582 36.6089H172.518H124.875V58.3512H172.518H172.582H206.765V36.6089H172.582Z" fill="#CCCCCC"/>
</g>
<path d="M213.695 45.6104H207.088V46.4567H213.695V45.6104Z" fill="#457084"/>
<path d="M207.694 38.1785L206.494 39.3017H212.559L213.708 38.1785H207.694Z" fill="#457084"/>
<path d="M182.828 38.1475H173.602V38.9322H182.828V38.1475Z" fill="#457084"/>
<path d="M182.828 39.3784H173.602V40.1631H182.828V39.3784Z" fill="#457084"/>
<path d="M182.828 40.6094H173.602V41.3941H182.828V40.6094Z" fill="#457084"/>
<path d="M182.828 41.8406H173.602V42.6253H182.828V41.8406Z" fill="#457084"/>
<path d="M182.828 43.0715H173.602V43.8563H182.828V43.0715Z" fill="#457084"/>
<path d="M193.306 38.1475H184.08V38.9322H193.306V38.1475Z" fill="#457084"/>
<path d="M193.306 39.3784H184.08V40.1631H193.306V39.3784Z" fill="#457084"/>
<path d="M193.306 40.6094H184.08V41.3941H193.306V40.6094Z" fill="#457084"/>
<path d="M193.306 41.8406H184.08V42.6253H193.306V41.8406Z" fill="#457084"/>
<path d="M193.306 43.0715H184.08V43.8563H193.306V43.0715Z" fill="#457084"/>
<path d="M161.433 38.1475H152.206V38.9322H161.433V38.1475Z" fill="#457084"/>
<path d="M161.433 39.3784H152.206V40.1631H161.433V39.3784Z" fill="#457084"/>
<path d="M161.433 40.6094H152.206V41.3941H161.433V40.6094Z" fill="#457084"/>
<path d="M161.433 41.8406H152.206V42.6253H161.433V41.8406Z" fill="#457084"/>
<path d="M161.433 43.0715H152.206V43.8563H161.433V43.0715Z" fill="#457084"/>
<path d="M171.898 38.1475H162.672V38.9322H171.898V38.1475Z" fill="#457084"/>
<path d="M171.898 39.3784H162.672V40.1631H171.898V39.3784Z" fill="#457084"/>
<path d="M171.898 40.6094H162.672V41.3941H171.898V40.6094Z" fill="#457084"/>
<path d="M171.898 41.8406H162.672V42.6253H171.898V41.8406Z" fill="#457084"/>
<path d="M171.898 43.0715H162.672V43.8563H171.898V43.0715Z" fill="#457084"/>
<path d="M204.468 49.4573H173.679V49.765H204.468V49.4573Z" fill="#457084"/>
<path d="M204.61 49.6111H204.352V59.1974H204.61V49.6111Z" fill="#457084"/>
<path d="M194.351 49.6572H194.093V59.1974H194.351V49.6572Z" fill="#457084"/>
<path d="M184.08 49.6572H183.822V59.1974H184.08V49.6572Z" fill="#457084"/>
<path d="M173.821 49.6572H173.563V59.1974H173.821V49.6572Z" fill="#457084"/>
<path d="M171.601 49.4573H126.269V49.765H171.601V49.4573Z" fill="#457084"/>
<path d="M171.743 49.6111H171.485V59.1974H171.743V49.6111Z" fill="#457084"/>
<path d="M161.472 49.6572H161.214V59.1974H161.472V49.6572Z" fill="#457084"/>
<path d="M151.213 49.6572H150.955V59.1974H151.213V49.6572Z" fill="#457084"/>
<path d="M140.941 49.6572H140.683V59.1974H140.941V49.6572Z" fill="#457084"/>
<path d="M130.566 49.6572H130.308V59.1974H130.566V49.6572Z" fill="#457084"/>
<path d="M235.877 48.7185H238.303L238.381 41.2403L235.877 41.2249V48.7185Z" fill="#001B49"/>
<path d="M239.968 44.9793C239.968 47.0412 239.219 48.7185 238.303 48.7185C237.387 48.7185 236.639 47.0412 236.639 44.9793C236.639 42.9174 237.387 41.2402 238.303 41.2402C239.219 41.2402 239.968 42.9174 239.968 44.9793Z" fill="#001B49"/>
<path d="M239.826 44.9794C239.826 46.8567 239.142 48.3801 238.303 48.3801C237.464 48.3801 236.781 46.8567 236.781 44.9794C236.781 43.1022 237.464 41.5789 238.303 41.5789C239.142 41.5789 239.826 43.1022 239.826 44.9794Z" fill="#97CBDC"/>
<path d="M223.037 41.1172L235.877 43.4406V41.2249L223.037 41.1172Z" fill="#001B49"/>
<g style="mix-blend-mode:multiply">
<path d="M239.052 47.4875C239.052 47.4875 240.6 44.9178 239.052 42.302C239.052 42.302 239.336 43.5022 239.336 44.7947C239.336 45.8257 239.052 46.949 239.052 47.4875Z" fill="#97CBDC"/>
</g>
<path d="M221.437 42.2251L232.909 43.7946L234.367 43.1637L223.038 41.1172L221.437 42.2251Z" fill="#97CADB"/>
<path d="M229.412 47.9185H224.173C223.909 47.9185 223.696 48.1733 223.696 48.4878V49.9188C223.696 50.2333 223.909 50.4882 224.173 50.4882H229.412C229.676 50.4882 229.89 50.2333 229.89 49.9188V48.4878C229.89 48.1733 229.676 47.9185 229.412 47.9185Z" fill="#97CBDC"/>
<path d="M229.412 50.6883H224.173C223.812 50.6883 223.515 50.3343 223.515 49.9035V48.4878C223.515 48.057 223.812 47.7031 224.173 47.7031H229.412C229.773 47.7031 230.07 48.057 230.07 48.4878V49.9035C230.07 50.3343 229.773 50.6883 229.412 50.6883ZM224.173 48.134C224.005 48.134 223.876 48.2878 223.876 48.4878V49.9035C223.876 50.1035 224.005 50.2574 224.173 50.2574H229.412C229.58 50.2574 229.709 50.1035 229.709 49.9035V48.4878C229.709 48.2878 229.58 48.134 229.412 48.134H224.173Z" fill="#457084"/>
<path d="M241.942 49.9805C241.942 50.3037 241.903 50.5499 241.852 50.5499H240.858C240.858 50.5499 240.768 50.2883 240.768 49.9805V48.5649C240.768 48.2418 240.807 47.9956 240.858 47.9956H241.852C241.852 47.9956 241.942 48.2572 241.942 48.5649V49.9805Z" fill="#97CBDC"/>
<path d="M241.852 50.7652H240.858C240.729 50.7652 240.587 50.6728 240.587 49.9804V48.5648C240.587 47.8724 240.729 47.78 240.858 47.78H241.852C241.981 47.78 242.123 47.8724 242.123 48.5648V49.9804C242.123 50.6728 241.981 50.7652 241.852 50.7652ZM240.961 50.3343H241.736C241.736 50.3343 241.762 50.1343 241.762 49.9804V48.5648C241.762 48.4109 241.762 48.2878 241.736 48.2109H240.961C240.961 48.2109 240.936 48.4109 240.936 48.5648V49.9804C240.936 50.1343 240.936 50.2574 240.961 50.3343Z" fill="#457084"/>
<path d="M205.075 64.7063H195.345V67.676H205.075V64.7063Z" fill="#457084"/>
<path d="M150.916 64.4292H141.186V67.3989H150.916V64.4292Z" fill="#457084"/>
<path d="M215.011 64.491H211.256V67.9069H215.011V64.491Z" fill="#457084"/>
<path d="M135.147 64.3831H131.392V67.799H135.147V64.3831Z" fill="#457084"/>
<path d="M214.753 61.9211H195.965V63.9369H214.753V61.9211Z" fill="#457084"/>
<g style="mix-blend-mode:multiply">
<path d="M213.708 46.4412H207.694V47.2259H213.708V46.4412Z" fill="#CCCCCC"/>
</g>
<path d="M229.877 34.4238H124.733V35.424H229.877V34.4238Z" fill="#457084"/>
<path d="M126.269 65.3677C125.598 65.3677 125.043 64.4137 125.043 63.2443V51.4422C125.043 50.319 125.585 49.4727 126.294 49.4727V49.7804C125.727 49.7804 125.301 50.5036 125.301 51.4576V63.2597C125.301 64.2599 125.74 65.0754 126.269 65.0754V65.3831V65.3677Z" fill="#457084"/>
<g style="mix-blend-mode:screen">
<path d="M216.495 44.3485L217.889 43.5329L220.276 37.8088H219.231L216.495 44.3485Z" fill="#3C9EB8"/>
</g>
<g style="mix-blend-mode:screen">
<path d="M218.405 43.2254L219.102 42.8253L221.205 37.7937H220.676L218.405 43.2254Z" fill="#3C9EB8"/>
</g>
</svg>
