<svg width="81" height="80" viewBox="0 0 81 80" fill="none" xmlns="http://www.w3.org/2000/svg">
<path d="M3.16577 15.3906C2.91577 15.625 2.77515 15.9531 2.77515 16.25C2.77515 16.5469 2.91577 16.875 3.16577 17.1094L3.54077 17.5H18.1658H32.7751V36.25V55H18.1658H3.54077L3.16577 55.3906C2.65015 55.8906 2.65015 56.6094 3.16577 57.1094L3.54077 57.5H16.9158H30.2751V58.75V60H16.9158H3.54077L3.16577 60.3906C2.65015 60.8906 2.65015 61.6094 3.16577 62.1094L3.54077 62.5H19.4158C33.6189 62.5 35.2751 62.5312 35.2751 62.7344C35.2751 62.875 35.447 63.1562 35.6658 63.3594C36.1658 63.875 36.8845 63.875 37.3845 63.3594C37.7595 63 37.7751 62.875 37.7751 61.25C37.7751 59.625 37.7595 59.5 37.3845 59.1406C36.8845 58.625 36.1658 58.625 35.6658 59.1406C35.447 59.3438 35.2751 59.625 35.2751 59.7656C35.2751 59.9531 35.0408 60 34.0251 60H32.7751V58.75V57.5H33.6345C34.3533 57.5 34.572 57.4375 34.8845 57.1094L35.2751 56.7344V36.25V15.7656L34.8845 15.3906L34.5095 15H19.0251H3.54077L3.16577 15.3906Z" fill="#001C47"/>
<path d="M43.1658 15.3906L42.7751 15.7656V36.25V56.7344L43.1658 57.1094C43.4783 57.4375 43.697 57.5 44.4158 57.5H45.2751V58.75V60H44.0251C43.0095 60 42.7751 59.9531 42.7751 59.7656C42.7751 59.625 42.6033 59.3438 42.3845 59.1406C41.8845 58.625 41.1658 58.625 40.6658 59.1406C40.2908 59.5 40.2751 59.625 40.2751 61.25C40.2751 62.875 40.2908 63 40.6658 63.3594C41.1658 63.875 41.8845 63.875 42.3845 63.3594C42.6033 63.1562 42.7751 62.875 42.7751 62.7344C42.7751 62.5312 44.5564 62.5 59.8845 62.5H77.0095L77.3845 62.1094C77.9001 61.6094 77.9001 60.8906 77.3845 60.3906L77.0095 60H62.3845H47.7751V58.75V57.5H62.3845H77.0095L77.3845 57.1094C77.9001 56.6094 77.9001 55.8906 77.3845 55.3906L77.0095 55H61.1345H45.2751V36.25V17.5H61.1345H77.0095L77.3845 17.1094C77.6345 16.875 77.7751 16.5469 77.7751 16.25C77.7751 15.9531 77.6345 15.625 77.3845 15.3906L77.0095 15H60.2751H43.5408L43.1658 15.3906Z" fill="#001C47"/>
<path d="M3.16577 20.3906L2.77515 20.7656V36.25V51.7344L3.16577 52.1094C3.4939 52.4531 3.6814 52.5 4.65015 52.5C5.6189 52.5 5.8064 52.4531 6.13452 52.1094C6.38452 51.875 6.52515 51.5469 6.52515 51.25C6.52515 50.7344 5.9314 50 5.50952 50C5.3064 50 5.27515 48.5469 5.27515 36.25C5.27515 23.9531 5.3064 22.5 5.50952 22.5C5.65015 22.5 5.9314 22.3281 6.13452 22.1094C6.65015 21.6094 6.65015 20.8906 6.13452 20.3906C5.8064 20.0469 5.6189 20 4.65015 20C3.6814 20 3.4939 20.0469 3.16577 20.3906Z" fill="#001C47"/>
<path d="M10.6658 20.3906L10.2751 20.7656V36.25V51.7344L10.6658 52.1094C10.9939 52.4531 11.1814 52.5 12.1501 52.5C13.1189 52.5 13.3064 52.4531 13.6345 52.1094C14.1501 51.6094 14.1501 50.8906 13.6345 50.3906C13.4314 50.1719 13.1501 50 13.0095 50C12.8064 50 12.7751 48.5469 12.7751 36.25C12.7751 23.9531 12.8064 22.5 13.0095 22.5C13.1501 22.5 13.4314 22.3281 13.6345 22.1094C14.1501 21.6094 14.1501 20.8906 13.6345 20.3906C13.3064 20.0469 13.1189 20 12.1501 20C11.1814 20 10.9939 20.0469 10.6658 20.3906Z" fill="#001C47"/>
<path d="M18.1658 20.3906L17.7751 20.7656V36.25V51.7344L18.1658 52.1094C18.4939 52.4531 18.6814 52.5 19.6501 52.5C20.6189 52.5 20.8064 52.4531 21.1345 52.1094C21.6501 51.6094 21.6501 50.8906 21.1345 50.3906C20.9314 50.1719 20.6501 50 20.5095 50C20.3064 50 20.2751 48.5469 20.2751 36.25C20.2751 23.9531 20.3064 22.5 20.5095 22.5C20.9314 22.5 21.5251 21.7656 21.5251 21.25C21.5251 20.9531 21.3845 20.625 21.1345 20.3906C20.8064 20.0469 20.6189 20 19.6501 20C18.6814 20 18.4939 20.0469 18.1658 20.3906Z" fill="#001C47"/>
<path d="M25.6658 20.3906L25.2751 20.7656V36.25V51.7344L25.6658 52.1094C25.9939 52.4531 26.1814 52.5 27.1501 52.5C28.1189 52.5 28.3064 52.4531 28.6345 52.1094C29.1501 51.6094 29.1501 50.8906 28.6345 50.3906C28.4314 50.1719 28.1501 50 28.0095 50C27.8064 50 27.7751 48.5469 27.7751 36.25C27.7751 23.9531 27.8064 22.5 28.0095 22.5C28.4314 22.5 29.0251 21.7656 29.0251 21.25C29.0251 20.9531 28.8845 20.625 28.6345 20.3906C28.3064 20.0469 28.1189 20 27.1501 20C26.1814 20 25.9939 20.0469 25.6658 20.3906Z" fill="#001C47"/>
<path d="M48.1658 20.3906L47.7751 20.7656V36.25V51.7344L48.1658 52.1094C48.4939 52.4531 48.6814 52.5 49.6501 52.5C50.6189 52.5 50.8064 52.4531 51.1345 52.1094C51.6501 51.6094 51.6501 50.8906 51.1345 50.3906C50.9314 50.1719 50.6501 50 50.5095 50C50.3064 50 50.2751 48.5469 50.2751 36.25C50.2751 23.9531 50.3064 22.5 50.5095 22.5C50.9314 22.5 51.5251 21.7656 51.5251 21.25C51.5251 20.9531 51.3845 20.625 51.1345 20.3906C50.8064 20.0469 50.6189 20 49.6501 20C48.6814 20 48.4939 20.0469 48.1658 20.3906Z" fill="#001C47"/>
<path d="M55.6658 20.3906L55.2751 20.7656V36.25V51.7344L55.6658 52.1094C55.9939 52.4531 56.1814 52.5 57.1501 52.5C58.1189 52.5 58.3064 52.4531 58.6345 52.1094C59.1501 51.6094 59.1501 50.8906 58.6345 50.3906C58.4314 50.1719 58.1501 50 58.0095 50C57.8064 50 57.7751 48.5469 57.7751 36.25C57.7751 23.9531 57.8064 22.5 58.0095 22.5C58.4314 22.5 59.0251 21.7656 59.0251 21.25C59.0251 20.9531 58.8845 20.625 58.6345 20.3906C58.3064 20.0469 58.1189 20 57.1501 20C56.1814 20 55.9939 20.0469 55.6658 20.3906Z" fill="#001C47"/>
<path d="M63.1658 20.3906L62.7751 20.7656V36.25V51.7344L63.1658 52.1094C63.4939 52.4531 63.6814 52.5 64.6501 52.5C65.6189 52.5 65.8064 52.4531 66.1345 52.1094C66.6501 51.6094 66.6501 50.8906 66.1345 50.3906C65.9314 50.1719 65.6501 50 65.5095 50C65.3064 50 65.2751 48.5469 65.2751 36.25C65.2751 23.9531 65.3064 22.5 65.5095 22.5C65.9314 22.5 66.5251 21.7656 66.5251 21.25C66.5251 20.9531 66.3845 20.625 66.1345 20.3906C65.8064 20.0469 65.6189 20 64.6501 20C63.6814 20 63.4939 20.0469 63.1658 20.3906Z" fill="#001C47"/>
<path d="M70.6658 20.3906L70.2751 20.7656V36.25V51.7344L70.6658 52.1094C70.9939 52.4531 71.1814 52.5 72.1501 52.5C73.1189 52.5 73.3064 52.4531 73.6345 52.1094C74.1501 51.6094 74.1501 50.8906 73.6345 50.3906C73.4314 50.1719 73.1501 50 73.0095 50C72.8064 50 72.7751 48.5469 72.7751 36.25C72.7751 23.9531 72.8064 22.5 73.0095 22.5C73.4314 22.5 74.0251 21.7656 74.0251 21.25C74.0251 20.9531 73.8845 20.625 73.6345 20.3906C73.3064 20.0469 73.1189 20 72.1501 20C71.1814 20 70.9939 20.0469 70.6658 20.3906Z" fill="#001C47"/>
<path d="M15.2751 63.9531C14.5095 64.2031 13.197 65.5469 12.9626 66.3438C12.5251 67.8125 12.8376 68.9844 13.947 70.0781C15.5251 71.6719 17.5251 71.6719 19.1033 70.0781C20.6345 68.5625 20.6814 66.6094 19.2283 65C18.2126 63.875 16.7595 63.4844 15.2751 63.9531ZM17.3845 66.6406C17.6345 66.875 17.7751 67.2031 17.7751 67.5C17.7751 67.7969 17.6345 68.125 17.3845 68.3594C17.1501 68.6094 16.822 68.75 16.5251 68.75C16.2283 68.75 15.9001 68.6094 15.6658 68.3594C15.4158 68.125 15.2751 67.7969 15.2751 67.5C15.2751 67.2031 15.4158 66.875 15.6658 66.6406C15.9001 66.3906 16.2283 66.25 16.5251 66.25C16.822 66.25 17.1501 66.3906 17.3845 66.6406Z" fill="#001C47"/>
<path d="M25.2751 63.9531C24.5095 64.2031 23.197 65.5469 22.9626 66.3438C22.5251 67.8125 22.8376 68.9844 23.947 70.0781C25.5251 71.6719 27.5251 71.6719 29.1033 70.0781C30.6345 68.5625 30.6814 66.6094 29.2283 65C28.2126 63.875 26.7595 63.4844 25.2751 63.9531ZM27.3845 66.6406C28.1658 67.4063 27.6189 68.75 26.5251 68.75C26.2283 68.75 25.9001 68.6094 25.6658 68.3594C25.4158 68.125 25.2751 67.7969 25.2751 67.5C25.2751 67.2031 25.4158 66.875 25.6658 66.6406C25.9001 66.3906 26.2283 66.25 26.5251 66.25C26.822 66.25 27.1501 66.3906 27.3845 66.6406Z" fill="#001C47"/>
<path d="M50.2751 63.9531C49.5095 64.2031 48.197 65.5469 47.9626 66.3438C47.5251 67.8125 47.8376 68.9844 48.947 70.0781C50.5251 71.6719 52.5251 71.6719 54.1033 70.0781C55.6345 68.5625 55.6814 66.6094 54.2283 65C53.2126 63.875 51.7595 63.4844 50.2751 63.9531ZM52.3845 66.6406C53.1658 67.4063 52.6189 68.75 51.5251 68.75C50.8845 68.75 50.2751 68.1406 50.2751 67.5C50.2751 66.8594 50.8845 66.25 51.5251 66.25C51.822 66.25 52.1501 66.3906 52.3845 66.6406Z" fill="#001C47"/>
<path d="M60.2751 63.9531C59.5095 64.2031 58.197 65.5469 57.9626 66.3438C57.5251 67.8125 57.8376 68.9844 58.947 70.0781C60.5251 71.6719 62.5251 71.6719 64.1033 70.0781C65.6345 68.5625 65.6814 66.6094 64.2283 65C63.2126 63.875 61.7595 63.4844 60.2751 63.9531ZM62.3845 66.6406C63.1658 67.4063 62.6189 68.75 61.5251 68.75C60.8845 68.75 60.2751 68.1406 60.2751 67.5C60.2751 66.8594 60.8845 66.25 61.5251 66.25C61.822 66.25 62.1501 66.3906 62.3845 66.6406Z" fill="#001C47"/>
<path d="M3.16577 72.8906C2.91577 73.125 2.77515 73.4531 2.77515 73.75C2.77515 74.5469 3.3689 75 4.41577 75H5.27515V75.8594C5.27515 76.9062 5.72827 77.5 6.52515 77.5C7.32202 77.5 7.77515 76.9062 7.77515 75.8594V75H10.2751H12.7751V75.8594C12.7751 76.9062 13.2283 77.5 14.0251 77.5C14.822 77.5 15.2751 76.9062 15.2751 75.8594V75H17.7751H20.2751V75.8594C20.2751 76.9062 20.7283 77.5 21.5251 77.5C22.322 77.5 22.7751 76.9062 22.7751 75.8594V75H25.2751H27.7751V75.8594C27.7751 76.9062 28.2283 77.5 29.0251 77.5C29.822 77.5 30.2751 76.9062 30.2751 75.8594V75H32.7751H35.2751V75.8594C35.2751 76.9062 35.7283 77.5 36.5251 77.5C37.322 77.5 37.7751 76.9062 37.7751 75.8594V75H40.2751H42.7751V75.8594C42.7751 76.9062 43.2283 77.5 44.0251 77.5C44.822 77.5 45.2751 76.9062 45.2751 75.8594V75H47.7751H50.2751V75.8594C50.2751 76.9062 50.7283 77.5 51.5251 77.5C52.322 77.5 52.7751 76.9062 52.7751 75.8594V75H55.2751H57.7751V75.8594C57.7751 76.9062 58.2283 77.5 59.0251 77.5C59.822 77.5 60.2751 76.9062 60.2751 75.8594V75H62.7751H65.2751V75.8594C65.2751 76.9062 65.7283 77.5 66.5251 77.5C67.322 77.5 67.7751 76.9062 67.7751 75.8594V75H70.2751H72.7751V75.8594C72.7751 76.9062 73.2283 77.5 74.0251 77.5C74.822 77.5 75.2751 76.9062 75.2751 75.8594V75H76.1345C76.8533 75 77.072 74.9375 77.3845 74.6094C77.9001 74.1094 77.9001 73.3906 77.3845 72.8906L77.0095 72.5H40.2751H3.54077L3.16577 72.8906Z" fill="#001C47"/>
</svg>
